<svg xmlns="http://www.w3.org/2000/svg" xmlns:xlink="http://www.w3.org/1999/xlink" width="400" zoomAndPan="magnify" viewBox="0 0 300 299.999988" height="400" preserveAspectRatio="xMidYMid meet" version="1.0"><defs><g/><clipPath id="6281c52733"><path d="M 36.835938 4.527344 L 71.746094 4.527344 L 71.746094 38.421875 L 36.835938 38.421875 Z M 36.835938 4.527344 " clip-rule="nonzero"/></clipPath><clipPath id="9713c3e6da"><path d="M 40 12 L 46 12 L 46 38.421875 L 40 38.421875 Z M 40 12 " clip-rule="nonzero"/></clipPath><clipPath id="995f92e65f"><path d="M 52 4.527344 L 71.746094 4.527344 L 71.746094 38.421875 L 52 38.421875 Z M 52 4.527344 " clip-rule="nonzero"/></clipPath><clipPath id="b98a2216b0"><path d="M 69 5 L 103 5 L 103 40 L 69 40 Z M 69 5 " clip-rule="nonzero"/></clipPath><clipPath id="ca6cf64989"><path d="M 68.339844 5.507812 L 101.527344 4.695312 L 102.359375 38.523438 L 69.171875 39.339844 Z M 68.339844 5.507812 " clip-rule="nonzero"/></clipPath><clipPath id="11e248ad36"><path d="M 68.339844 5.507812 L 101.527344 4.695312 L 102.359375 38.523438 L 69.171875 39.339844 Z M 68.339844 5.507812 " clip-rule="nonzero"/></clipPath><clipPath id="4231c7eb98"><path d="M 168 0.160156 L 208 0.160156 L 208 55.601562 L 168 55.601562 Z M 168 0.160156 " clip-rule="nonzero"/></clipPath><clipPath id="89645be5d0"><rect x="0" width="40" y="0" height="56"/></clipPath><clipPath id="fe399160c4"><path d="M 183.054688 17.222656 L 192.683594 17.222656 L 192.683594 26.851562 L 183.054688 26.851562 Z M 183.054688 17.222656 " clip-rule="nonzero"/></clipPath><clipPath id="d92bdd22a6"><path d="M 187.867188 17.222656 C 185.210938 17.222656 183.054688 19.378906 183.054688 22.039062 C 183.054688 24.695312 185.210938 26.851562 187.867188 26.851562 C 190.527344 26.851562 192.683594 24.695312 192.683594 22.039062 C 192.683594 19.378906 190.527344 17.222656 187.867188 17.222656 Z M 187.867188 17.222656 " clip-rule="nonzero"/></clipPath><clipPath id="a059794142"><path d="M 0.0546875 0.222656 L 9.683594 0.222656 L 9.683594 9.851562 L 0.0546875 9.851562 Z M 0.0546875 0.222656 " clip-rule="nonzero"/></clipPath><clipPath id="abda839b0c"><path d="M 4.867188 0.222656 C 2.210938 0.222656 0.0546875 2.378906 0.0546875 5.039062 C 0.0546875 7.695312 2.210938 9.851562 4.867188 9.851562 C 7.527344 9.851562 9.683594 7.695312 9.683594 5.039062 C 9.683594 2.378906 7.527344 0.222656 4.867188 0.222656 Z M 4.867188 0.222656 " clip-rule="nonzero"/></clipPath><clipPath id="8c14cf2c16"><rect x="0" width="10" y="0" height="10"/></clipPath><clipPath id="f4ce9a66c8"><path d="M 211.085938 4.695312 L 246.695312 4.695312 L 246.695312 39.339844 L 211.085938 39.339844 Z M 211.085938 4.695312 " clip-rule="nonzero"/></clipPath><clipPath id="01b8d04619"><path d="M 215 13 L 220 13 L 220 39.339844 L 215 39.339844 Z M 215 13 " clip-rule="nonzero"/></clipPath><clipPath id="8c9aada04a"><path d="M 226 4.695312 L 246.695312 4.695312 L 246.695312 39.339844 L 226 39.339844 Z M 226 4.695312 " clip-rule="nonzero"/></clipPath><clipPath id="200e71de6e"><path d="M 0.199219 1 L 33 1 L 33 55.601562 L 0.199219 55.601562 Z M 0.199219 1 " clip-rule="nonzero"/></clipPath><clipPath id="6edb025ea4"><rect x="0" width="33" y="0" height="55"/></clipPath><clipPath id="4c32890bfe"><path d="M 3 3 L 35.839844 3 L 35.839844 39 L 3 39 Z M 3 3 " clip-rule="nonzero"/></clipPath><clipPath id="8f015ceb21"><rect x="0" width="36" y="0" height="54"/></clipPath><clipPath id="774a4227e2"><path d="M 101 0.160156 L 134 0.160156 L 134 55 L 101 55 Z M 101 0.160156 " clip-rule="nonzero"/></clipPath><clipPath id="e38f3c2899"><path d="M 1 3 L 32.878906 3 L 32.878906 40 L 1 40 Z M 1 3 " clip-rule="nonzero"/></clipPath><clipPath id="6b10709be5"><rect x="0" width="33" y="0" height="55"/></clipPath><clipPath id="8844172e4d"><path d="M 242.882812 5.144531 L 285.789062 5.144531 L 285.789062 39.46875 L 242.882812 39.46875 Z M 242.882812 5.144531 " clip-rule="nonzero"/></clipPath><clipPath id="fad413ac89"><path d="M 246.6875 9.5 L 281.976562 9.5 L 281.976562 37.710938 L 246.6875 37.710938 Z M 246.6875 9.5 " clip-rule="nonzero"/></clipPath><clipPath id="6b0d6f11dd"><path d="M 248.695312 10.085938 L 280.710938 10.085938 L 280.710938 35.722656 L 248.695312 35.722656 Z M 248.695312 10.085938 " clip-rule="nonzero"/></clipPath><clipPath id="418f9162da"><rect x="0" width="286" y="0" height="56"/></clipPath></defs><g transform="matrix(1, 0, 0, 1, 7, 122)"><g clip-path="url(#418f9162da)"><g clip-path="url(#6281c52733)"><path fill="#164e63" d="M 75.914062 50.800781 L 65.628906 50.800781 L 47.121094 20.980469 L 57.402344 20.980469 C 59.675781 20.980469 61.515625 19.140625 61.515625 16.867188 C 61.519531 15.734375 61.054688 14.707031 60.316406 13.957031 C 59.5625 13.214844 58.535156 12.753906 57.402344 12.753906 L 45.066406 12.753906 L 45.066406 38.460938 L 36.839844 38.460938 L 36.839844 4.527344 L 57.402344 4.527344 C 64.222656 4.527344 69.742188 10.050781 69.742188 16.867188 C 69.742188 22.070312 66.523438 26.523438 61.96875 28.332031 Z M 75.914062 50.800781 " fill-opacity="1" fill-rule="evenodd"/></g><g clip-path="url(#9713c3e6da)"><path fill="#164e63" d="M 40.953125 12.753906 L 45.066406 12.753906 L 45.066406 38.460938 L 40.953125 38.460938 Z M 40.953125 12.753906 " fill-opacity="1" fill-rule="evenodd"/></g><g clip-path="url(#995f92e65f)"><path fill="#164e63" d="M 75.914062 50.800781 L 70.773438 50.800781 L 56.828125 28.332031 C 61.382812 26.523438 64.601562 22.070312 64.601562 16.867188 C 64.601562 10.050781 59.082031 4.527344 52.261719 4.527344 L 57.402344 4.527344 C 64.222656 4.527344 69.742188 10.050781 69.742188 16.867188 C 69.742188 22.070312 66.523438 26.523438 61.96875 28.332031 Z M 75.914062 50.800781 " fill-opacity="1" fill-rule="evenodd"/></g><g clip-path="url(#b98a2216b0)"><g clip-path="url(#ca6cf64989)"><g clip-path="url(#11e248ad36)"><path fill="#164e63" d="M 77.894531 14.105469 L 69.175781 39.320312 L 77.816406 39.105469 L 79.789062 33.058594 L 82.027344 25.761719 Z M 88.890625 5.003906 L 81.03125 5.195312 L 85.132812 16.144531 L 85.136719 16.132812 L 91.222656 32.777344 L 93.53125 38.722656 L 102.339844 38.503906 L 88.890625 5.003906 " fill-opacity="1" fill-rule="nonzero"/></g></g></g><g clip-path="url(#4231c7eb98)"><g transform="matrix(1, 0, 0, 1, 168, 0)"><g clip-path="url(#89645be5d0)"><g fill="#164e63" fill-opacity="1"><g transform="translate(0.553927, 40.053773)"><g><path d="M 1.015625 -18.1875 C 1.015625 -23.445312 2.804688 -27.894531 6.390625 -31.53125 C 9.972656 -35.175781 14.289062 -37 19.34375 -37 C 24.414062 -37 28.726562 -35.1875 32.28125 -31.5625 C 35.832031 -27.9375 37.609375 -23.476562 37.609375 -18.1875 C 37.609375 -12.875 35.863281 -8.40625 32.375 -4.78125 C 28.882812 -1.15625 24.539062 0.65625 19.34375 0.65625 C 14.019531 0.65625 9.632812 -1.140625 6.1875 -4.734375 C 2.738281 -8.328125 1.015625 -12.8125 1.015625 -18.1875 Z M 9.953125 -18.1875 C 9.953125 -16.28125 10.242188 -14.539062 10.828125 -12.96875 C 11.421875 -11.394531 12.453125 -10.066406 13.921875 -8.984375 C 15.390625 -7.898438 17.195312 -7.359375 19.34375 -7.359375 C 22.425781 -7.359375 24.75 -8.414062 26.3125 -10.53125 C 27.882812 -12.644531 28.671875 -15.195312 28.671875 -18.1875 C 28.671875 -21.15625 27.867188 -23.703125 26.265625 -25.828125 C 24.671875 -27.960938 22.363281 -29.03125 19.34375 -29.03125 C 16.34375 -29.03125 14.023438 -27.960938 12.390625 -25.828125 C 10.765625 -23.703125 9.953125 -21.15625 9.953125 -18.1875 Z M 9.953125 -18.1875 "/></g></g></g></g></g></g><g clip-path="url(#fe399160c4)"><g clip-path="url(#d92bdd22a6)"><g transform="matrix(1, 0, 0, 1, 183, 17)"><g clip-path="url(#8c14cf2c16)"><g clip-path="url(#a059794142)"><g clip-path="url(#abda839b0c)"><path fill="#c85103" d="M 0.0546875 0.222656 L 9.683594 0.222656 L 9.683594 9.851562 L 0.0546875 9.851562 Z M 0.0546875 0.222656 " fill-opacity="1" fill-rule="nonzero"/></g></g></g></g></g></g><g clip-path="url(#f4ce9a66c8)"><path fill="#164e63" d="M 250.988281 51.941406 L 240.488281 51.941406 L 221.589844 21.492188 L 232.089844 21.492188 C 234.410156 21.492188 236.289062 19.613281 236.289062 17.292969 C 236.289062 16.140625 235.816406 15.089844 235.058594 14.324219 C 234.292969 13.566406 233.242188 13.09375 232.089844 13.09375 L 219.488281 13.09375 L 219.488281 39.34375 L 211.089844 39.34375 L 211.089844 4.695312 L 232.089844 4.695312 C 239.050781 4.695312 244.6875 10.332031 244.6875 17.292969 C 244.6875 22.605469 241.402344 27.152344 236.75 29 Z M 250.988281 51.941406 " fill-opacity="1" fill-rule="evenodd"/></g><g clip-path="url(#01b8d04619)"><path fill="#164e63" d="M 215.289062 13.09375 L 219.488281 13.09375 L 219.488281 39.34375 L 215.289062 39.34375 Z M 215.289062 13.09375 " fill-opacity="1" fill-rule="evenodd"/></g><g clip-path="url(#8c9aada04a)"><path fill="#164e63" d="M 250.988281 51.941406 L 245.738281 51.941406 L 231.5 29 C 236.152344 27.152344 239.4375 22.605469 239.4375 17.292969 C 239.4375 10.332031 233.800781 4.695312 226.839844 4.695312 L 232.089844 4.695312 C 239.050781 4.695312 244.6875 10.332031 244.6875 17.292969 C 244.6875 22.605469 241.402344 27.152344 236.75 29 Z M 250.988281 51.941406 " fill-opacity="1" fill-rule="evenodd"/></g><g clip-path="url(#200e71de6e)"><g transform="matrix(1, 0, 0, 1, 0, 1)"><g clip-path="url(#6edb025ea4)"><g fill="#164e63" fill-opacity="1"><g transform="translate(0.211612, 39.119003)"><g><path d="M 21.390625 -7.28125 C 22.617188 -7.28125 23.8125 -7.46875 24.96875 -7.84375 C 26.125 -8.21875 26.972656 -8.578125 27.515625 -8.921875 L 28.328125 -9.46875 L 31.765625 -2.609375 C 31.648438 -2.523438 31.488281 -2.410156 31.28125 -2.265625 C 31.082031 -2.128906 30.617188 -1.867188 29.890625 -1.484375 C 29.160156 -1.097656 28.378906 -0.757812 27.546875 -0.46875 C 26.722656 -0.1875 25.640625 0.0664062 24.296875 0.296875 C 22.953125 0.523438 21.566406 0.640625 20.140625 0.640625 C 16.859375 0.640625 13.742188 -0.164062 10.796875 -1.78125 C 7.859375 -3.394531 5.488281 -5.613281 3.6875 -8.4375 C 1.882812 -11.269531 0.984375 -14.328125 0.984375 -17.609375 C 0.984375 -20.097656 1.507812 -22.484375 2.5625 -24.765625 C 3.625 -27.054688 5.03125 -29.015625 6.78125 -30.640625 C 8.539062 -32.273438 10.59375 -33.578125 12.9375 -34.546875 C 15.28125 -35.515625 17.679688 -36 20.140625 -36 C 22.429688 -36 24.539062 -35.726562 26.46875 -35.1875 C 28.394531 -34.644531 29.757812 -34.101562 30.5625 -33.5625 L 31.765625 -32.75 L 28.328125 -25.890625 C 28.128906 -26.054688 27.828125 -26.257812 27.421875 -26.5 C 27.023438 -26.75 26.226562 -27.070312 25.03125 -27.46875 C 23.832031 -27.875 22.617188 -28.078125 21.390625 -28.078125 C 19.441406 -28.078125 17.695312 -27.757812 16.15625 -27.125 C 14.613281 -26.5 13.390625 -25.671875 12.484375 -24.640625 C 11.585938 -23.609375 10.90625 -22.5 10.4375 -21.3125 C 9.96875 -20.132812 9.734375 -18.929688 9.734375 -17.703125 C 9.734375 -15.015625 10.738281 -12.601562 12.75 -10.46875 C 14.757812 -8.34375 17.640625 -7.28125 21.390625 -7.28125 Z M 21.390625 -7.28125 "/></g></g></g></g></g></g><g transform="matrix(1, 0, 0, 1, 135, 1)"><g clip-path="url(#8f015ceb21)"><g clip-path="url(#4c32890bfe)"><g fill="#164e63" fill-opacity="1"><g transform="translate(0.988549, 38.826972)"><g><path d="M 34.484375 0 L 23.46875 0 L 10.546875 -14.875 L 10.546875 0 L 2.546875 0 L 2.546875 -35.078125 L 10.546875 -35.078125 L 10.546875 -20.75 L 22.578125 -35.078125 L 32.265625 -35.078125 L 18.15625 -18.453125 Z M 34.484375 0 "/></g></g></g></g></g></g><g clip-path="url(#774a4227e2)"><g transform="matrix(1, 0, 0, 1, 101, 0)"><g clip-path="url(#6b10709be5)"><g clip-path="url(#e38f3c2899)"><g fill="#164e63" fill-opacity="1"><g transform="translate(0.377722, 39.014511)"><g><path d="M 21.390625 -7.28125 C 22.617188 -7.28125 23.8125 -7.46875 24.96875 -7.84375 C 26.125 -8.21875 26.972656 -8.578125 27.515625 -8.921875 L 28.328125 -9.46875 L 31.765625 -2.609375 C 31.648438 -2.523438 31.488281 -2.410156 31.28125 -2.265625 C 31.082031 -2.128906 30.617188 -1.867188 29.890625 -1.484375 C 29.160156 -1.097656 28.378906 -0.757812 27.546875 -0.46875 C 26.722656 -0.1875 25.640625 0.0664062 24.296875 0.296875 C 22.953125 0.523438 21.566406 0.640625 20.140625 0.640625 C 16.859375 0.640625 13.742188 -0.164062 10.796875 -1.78125 C 7.859375 -3.394531 5.488281 -5.613281 3.6875 -8.4375 C 1.882812 -11.269531 0.984375 -14.328125 0.984375 -17.609375 C 0.984375 -20.097656 1.507812 -22.484375 2.5625 -24.765625 C 3.625 -27.054688 5.03125 -29.015625 6.78125 -30.640625 C 8.539062 -32.273438 10.59375 -33.578125 12.9375 -34.546875 C 15.28125 -35.515625 17.679688 -36 20.140625 -36 C 22.429688 -36 24.539062 -35.726562 26.46875 -35.1875 C 28.394531 -34.644531 29.757812 -34.101562 30.5625 -33.5625 L 31.765625 -32.75 L 28.328125 -25.890625 C 28.128906 -26.054688 27.828125 -26.257812 27.421875 -26.5 C 27.023438 -26.75 26.226562 -27.070312 25.03125 -27.46875 C 23.832031 -27.875 22.617188 -28.078125 21.390625 -28.078125 C 19.441406 -28.078125 17.695312 -27.757812 16.15625 -27.125 C 14.613281 -26.5 13.390625 -25.671875 12.484375 -24.640625 C 11.585938 -23.609375 10.90625 -22.5 10.4375 -21.3125 C 9.96875 -20.132812 9.734375 -18.929688 9.734375 -17.703125 C 9.734375 -15.015625 10.738281 -12.601562 12.75 -10.46875 C 14.757812 -8.34375 17.640625 -7.28125 21.390625 -7.28125 Z M 21.390625 -7.28125 "/></g></g></g></g></g></g></g><g clip-path="url(#8844172e4d)"><path fill="#164e63" d="M 264.335938 13.296875 L 278.066406 35.175781 L 250.605469 35.175781 L 264.335938 13.296875 M 264.335938 5.144531 L 242.882812 39.46875 L 285.789062 39.46875 Z M 264.335938 5.144531 " fill-opacity="1" fill-rule="nonzero"/></g><g clip-path="url(#fad413ac89)"><path fill="#164e63" d="M 264.335938 16.207031 L 275.628906 34.207031 L 253.042969 34.207031 L 264.335938 16.207031 M 264.335938 9.5 L 246.6875 37.734375 L 281.980469 37.734375 Z M 264.335938 9.5 " fill-opacity="1" fill-rule="nonzero"/></g><g clip-path="url(#6b0d6f11dd)"><path fill="#164e63" d="M 264.707031 16.171875 L 274.953125 32.503906 L 254.460938 32.503906 L 264.707031 16.171875 M 264.707031 10.085938 L 248.695312 35.707031 L 280.71875 35.707031 Z M 264.707031 10.085938 " fill-opacity="1" fill-rule="nonzero"/></g></g></g></svg>