<svg version="1.0" preserveAspectRatio="xMidYMid meet" viewBox="6 120.599995176 291 68.99999724" zoomAndPan="magnify" xmlns:xlink="http://www.w3.org/1999/xlink" xmlns="http://www.w3.org/2000/svg" style="max-height: 500px" width="291" height="68.99999724"><defs><g/><clipPath id="d2367d8f36"><path clip-rule="nonzero" d="M 0.078125 5 L 11 5 L 11 21 L 0.078125 21 Z M 0.078125 5"/></clipPath><clipPath id="8cfb2619aa"><rect height="27" y="0" width="218" x="0"/></clipPath><clipPath id="a0ec95bbce"><path clip-rule="nonzero" d="M 36.835938 4.527344 L 71.746094 4.527344 L 71.746094 38.421875 L 36.835938 38.421875 Z M 36.835938 4.527344"/></clipPath><clipPath id="b1a8d8745a"><path clip-rule="nonzero" d="M 40 12 L 46 12 L 46 38.421875 L 40 38.421875 Z M 40 12"/></clipPath><clipPath id="3cc98165c1"><path clip-rule="nonzero" d="M 52 4.527344 L 71.746094 4.527344 L 71.746094 38.421875 L 52 38.421875 Z M 52 4.527344"/></clipPath><clipPath id="dc0c948e1e"><path clip-rule="nonzero" d="M 69 5 L 103 5 L 103 40 L 69 40 Z M 69 5"/></clipPath><clipPath id="f139a7dcef"><path clip-rule="nonzero" d="M 68.339844 5.507812 L 101.527344 4.695312 L 102.359375 38.523438 L 69.171875 39.339844 Z M 68.339844 5.507812"/></clipPath><clipPath id="34da0b190f"><path clip-rule="nonzero" d="M 68.339844 5.507812 L 101.527344 4.695312 L 102.359375 38.523438 L 69.171875 39.339844 Z M 68.339844 5.507812"/></clipPath><clipPath id="3e37676600"><path clip-rule="nonzero" d="M 168 0.160156 L 208 0.160156 L 208 55.601562 L 168 55.601562 Z M 168 0.160156"/></clipPath><clipPath id="d0e229fbe7"><rect height="56" y="0" width="40" x="0"/></clipPath><clipPath id="14c2d94394"><path clip-rule="nonzero" d="M 183.054688 17.222656 L 192.683594 17.222656 L 192.683594 26.851562 L 183.054688 26.851562 Z M 183.054688 17.222656"/></clipPath><clipPath id="700e68b492"><path clip-rule="nonzero" d="M 187.867188 17.222656 C 185.210938 17.222656 183.054688 19.378906 183.054688 22.039062 C 183.054688 24.695312 185.210938 26.851562 187.867188 26.851562 C 190.527344 26.851562 192.683594 24.695312 192.683594 22.039062 C 192.683594 19.378906 190.527344 17.222656 187.867188 17.222656 Z M 187.867188 17.222656"/></clipPath><clipPath id="3ee889f127"><path clip-rule="nonzero" d="M 0.0546875 0.222656 L 9.683594 0.222656 L 9.683594 9.851562 L 0.0546875 9.851562 Z M 0.0546875 0.222656"/></clipPath><clipPath id="ba2c148e43"><path clip-rule="nonzero" d="M 4.867188 0.222656 C 2.210938 0.222656 0.0546875 2.378906 0.0546875 5.039062 C 0.0546875 7.695312 2.210938 9.851562 4.867188 9.851562 C 7.527344 9.851562 9.683594 7.695312 9.683594 5.039062 C 9.683594 2.378906 7.527344 0.222656 4.867188 0.222656 Z M 4.867188 0.222656"/></clipPath><clipPath id="723c662487"><rect height="10" y="0" width="10" x="0"/></clipPath><clipPath id="b838d23c53"><path clip-rule="nonzero" d="M 211.085938 4.695312 L 246.695312 4.695312 L 246.695312 39.339844 L 211.085938 39.339844 Z M 211.085938 4.695312"/></clipPath><clipPath id="11a8611f56"><path clip-rule="nonzero" d="M 215 13 L 220 13 L 220 39.339844 L 215 39.339844 Z M 215 13"/></clipPath><clipPath id="c48d224bf0"><path clip-rule="nonzero" d="M 226 4.695312 L 246.695312 4.695312 L 246.695312 39.339844 L 226 39.339844 Z M 226 4.695312"/></clipPath><clipPath id="ba21ce4d06"><path clip-rule="nonzero" d="M 0.199219 1 L 33 1 L 33 55.601562 L 0.199219 55.601562 Z M 0.199219 1"/></clipPath><clipPath id="5ade1a5936"><rect height="55" y="0" width="33" x="0"/></clipPath><clipPath id="a416c26f53"><path clip-rule="nonzero" d="M 3 3 L 35.839844 3 L 35.839844 39 L 3 39 Z M 3 3"/></clipPath><clipPath id="de52190911"><rect height="54" y="0" width="36" x="0"/></clipPath><clipPath id="3909637cb1"><path clip-rule="nonzero" d="M 101 0.160156 L 134 0.160156 L 134 55 L 101 55 Z M 101 0.160156"/></clipPath><clipPath id="cd479f179d"><path clip-rule="nonzero" d="M 1 3 L 32.878906 3 L 32.878906 40 L 1 40 Z M 1 3"/></clipPath><clipPath id="4729cdbbb3"><rect height="55" y="0" width="33" x="0"/></clipPath><clipPath id="d12f181d16"><path clip-rule="nonzero" d="M 242.882812 5.144531 L 285.789062 5.144531 L 285.789062 39.46875 L 242.882812 39.46875 Z M 242.882812 5.144531"/></clipPath><clipPath id="f0d49051eb"><path clip-rule="nonzero" d="M 246.6875 9.5 L 281.976562 9.5 L 281.976562 37.710938 L 246.6875 37.710938 Z M 246.6875 9.5"/></clipPath><clipPath id="bab4dadeec"><path clip-rule="nonzero" d="M 248.695312 10.085938 L 280.710938 10.085938 L 280.710938 35.722656 L 248.695312 35.722656 Z M 248.695312 10.085938"/></clipPath><clipPath id="7e96034e82"><rect height="56" y="0" width="286" x="0"/></clipPath></defs><g transform="matrix(1, 0, 0, 1, 46, 164)"><g clip-path="url(#8cfb2619aa)"><g clip-path="url(#d2367d8f36)"><g fill-opacity="1" fill="#c85103"><g transform="translate(0.163436, 20.167627)"><g><path d="M 6.40625 0.234375 C 5.394531 0.234375 4.457031 -0.0351562 3.59375 -0.578125 C 2.738281 -1.117188 2.046875 -1.945312 1.515625 -3.0625 C 0.992188 -4.175781 0.734375 -5.539062 0.734375 -7.15625 C 0.734375 -8.632812 0.992188 -9.898438 1.515625 -10.953125 C 2.035156 -12.015625 2.738281 -12.816406 3.625 -13.359375 C 4.519531 -13.910156 5.519531 -14.1875 6.625 -14.1875 C 7.289062 -14.1875 7.859375 -14.117188 8.328125 -13.984375 C 8.796875 -13.859375 9.160156 -13.707031 9.421875 -13.53125 C 9.691406 -13.363281 9.953125 -13.164062 10.203125 -12.9375 L 9.078125 -10.84375 C 8.847656 -11.09375 8.640625 -11.285156 8.453125 -11.421875 C 8.273438 -11.554688 8.046875 -11.664062 7.765625 -11.75 C 7.492188 -11.832031 7.144531 -11.875 6.71875 -11.875 C 6.050781 -11.875 5.476562 -11.675781 5 -11.28125 C 4.519531 -10.894531 4.148438 -10.359375 3.890625 -9.671875 C 3.640625 -8.984375 3.515625 -8.191406 3.515625 -7.296875 C 3.515625 -6.179688 3.644531 -5.222656 3.90625 -4.421875 C 4.175781 -3.628906 4.535156 -3.035156 4.984375 -2.640625 C 5.429688 -2.242188 5.9375 -2.046875 6.5 -2.046875 C 7.09375 -2.046875 7.617188 -2.128906 8.078125 -2.296875 C 8.535156 -2.460938 8.882812 -2.671875 9.125 -2.921875 L 10.21875 -0.9375 C 9.8125 -0.601562 9.316406 -0.320312 8.734375 -0.09375 C 8.160156 0.125 7.382812 0.234375 6.40625 0.234375 Z M 6.40625 0.234375"/></g></g></g></g><g fill-opacity="1" fill="#c85103"><g transform="translate(10.703011, 20.167627)"><g><path d="M 1.515625 -15.203125 L 3.953125 -15.203125 L 3.953125 0 L 1.515625 0 Z M 1.515625 -15.203125"/></g></g></g><g fill-opacity="1" fill="#c85103"><g transform="translate(15.882797, 20.167627)"><g><path d="M 3.484375 0.28125 C 2.890625 0.28125 2.390625 0.148438 1.984375 -0.109375 C 1.578125 -0.378906 1.269531 -0.738281 1.0625 -1.1875 C 0.863281 -1.644531 0.765625 -2.15625 0.765625 -2.71875 C 0.765625 -3.207031 0.925781 -3.691406 1.25 -4.171875 C 1.570312 -4.660156 2.144531 -5.070312 2.96875 -5.40625 C 3.789062 -5.75 4.90625 -5.921875 6.3125 -5.921875 L 6.3125 -6.375 C 6.3125 -6.925781 6.179688 -7.347656 5.921875 -7.640625 C 5.660156 -7.941406 5.203125 -8.09375 4.546875 -8.09375 C 4.023438 -8.09375 3.515625 -8.003906 3.015625 -7.828125 C 2.515625 -7.648438 2.148438 -7.4375 1.921875 -7.1875 L 1.125 -9.09375 C 1.570312 -9.40625 2.128906 -9.664062 2.796875 -9.875 C 3.472656 -10.09375 4.191406 -10.203125 4.953125 -10.203125 C 5.910156 -10.203125 6.664062 -10.050781 7.21875 -9.75 C 7.78125 -9.457031 8.171875 -9.046875 8.390625 -8.515625 C 8.617188 -7.984375 8.734375 -7.328125 8.734375 -6.546875 L 8.734375 0 L 6.59375 0 L 6.421875 -1.421875 C 6.066406 -0.847656 5.644531 -0.421875 5.15625 -0.140625 C 4.675781 0.140625 4.117188 0.28125 3.484375 0.28125 Z M 4.546875 -1.640625 C 4.847656 -1.640625 5.164062 -1.757812 5.5 -2 C 5.84375 -2.25 6.113281 -2.5625 6.3125 -2.9375 L 6.3125 -4.359375 C 6.226562 -4.367188 6.070312 -4.375 5.84375 -4.375 C 5.164062 -4.375 4.5625 -4.257812 4.03125 -4.03125 C 3.5 -3.8125 3.234375 -3.453125 3.234375 -2.953125 C 3.234375 -2.484375 3.335938 -2.144531 3.546875 -1.9375 C 3.765625 -1.738281 4.097656 -1.640625 4.546875 -1.640625 Z M 4.546875 -1.640625"/></g></g></g><g fill-opacity="1" fill="#c85103"><g transform="translate(25.822395, 20.167627)"><g><path d="M 1.375 -9.953125 L 3.640625 -9.953125 L 3.765625 -8.203125 C 3.972656 -8.710938 4.304688 -9.148438 4.765625 -9.515625 C 5.222656 -9.890625 5.875 -10.078125 6.71875 -10.078125 C 7.050781 -10.078125 7.359375 -10.023438 7.640625 -9.921875 L 7.078125 -7.296875 C 6.960938 -7.410156 6.828125 -7.492188 6.671875 -7.546875 C 6.515625 -7.597656 6.320312 -7.625 6.09375 -7.625 C 5.632812 -7.625 5.234375 -7.523438 4.890625 -7.328125 C 4.554688 -7.128906 4.300781 -6.898438 4.125 -6.640625 C 3.957031 -6.378906 3.875 -6.164062 3.875 -6 L 3.875 0 L 1.375 0 Z M 1.375 -9.953125"/></g></g></g><g fill-opacity="1" fill="#c85103"><g transform="translate(33.462085, 20.167627)"><g><path d="M 1.40625 -14.234375 L 4.203125 -14.234375 L 4.203125 -11.578125 L 1.40625 -11.578125 Z M 1.5 -9.953125 L 4.09375 -9.953125 L 4.09375 0 L 1.5 0 Z M 1.5 -9.953125"/></g></g></g><g fill-opacity="1" fill="#c85103"><g transform="translate(39.06186, 20.167627)"><g><path d="M 4.765625 0.296875 C 4.023438 0.296875 3.441406 0.171875 3.015625 -0.078125 C 2.597656 -0.328125 2.300781 -0.707031 2.125 -1.21875 C 1.957031 -1.726562 1.875 -2.398438 1.875 -3.234375 L 1.875 -7.859375 L 0.578125 -7.859375 L 0.578125 -9.953125 L 1.984375 -9.953125 L 2.125 -12.0625 L 4.296875 -13 L 4.296875 -9.953125 L 6.765625 -9.953125 L 6.765625 -7.859375 L 4.296875 -7.859375 L 4.296875 -3.296875 C 4.296875 -2.734375 4.375 -2.335938 4.53125 -2.109375 C 4.6875 -1.878906 4.914062 -1.765625 5.21875 -1.765625 C 5.488281 -1.765625 5.785156 -1.832031 6.109375 -1.96875 C 6.429688 -2.113281 6.703125 -2.273438 6.921875 -2.453125 L 7.40625 -0.4375 C 7.101562 -0.226562 6.675781 -0.0546875 6.125 0.078125 C 5.582031 0.222656 5.128906 0.296875 4.765625 0.296875 Z M 4.765625 0.296875"/></g></g></g><g fill-opacity="1" fill="#c85103"><g transform="translate(46.841548, 20.167627)"><g><path d="M 3.625 -0.6875 L -0.125 -9.953125 L 2.65625 -9.953125 L 4.140625 -5.515625 L 4.78125 -3.21875 L 5.421875 -5.515625 L 6.921875 -9.953125 L 9.546875 -9.953125 L 4.453125 3.78125 L 2 3.78125 Z M 3.625 -0.6875"/></g></g></g><g fill-opacity="1" fill="#c85103"><g transform="translate(56.301165, 20.167627)"><g/></g></g><g fill-opacity="1" fill="#c85103"><g transform="translate(60.10101, 20.167627)"><g><path d="M 8.46875 -7.375 C 9.25 -7.1875 9.832031 -6.804688 10.21875 -6.234375 C 10.601562 -5.660156 10.796875 -4.921875 10.796875 -4.015625 C 10.796875 -2.734375 10.359375 -1.742188 9.484375 -1.046875 C 8.617188 -0.347656 7.273438 0 5.453125 0 L 1.6875 0 L 1.6875 -13.9375 L 5.40625 -13.9375 C 8.53125 -13.9375 10.09375 -12.695312 10.09375 -10.21875 C 10.09375 -9.632812 9.957031 -9.078125 9.6875 -8.546875 C 9.414062 -8.023438 9.007812 -7.632812 8.46875 -7.375 Z M 7.625 -10.140625 C 7.625 -10.804688 7.414062 -11.273438 7 -11.546875 C 6.582031 -11.816406 6.050781 -11.953125 5.40625 -11.953125 L 4.203125 -11.953125 L 4.203125 -8.09375 L 5.8125 -8.09375 C 6.238281 -8.09375 6.585938 -8.195312 6.859375 -8.40625 C 7.128906 -8.613281 7.320312 -8.875 7.4375 -9.1875 C 7.5625 -9.5 7.625 -9.816406 7.625 -10.140625 Z M 5.734375 -2.015625 C 6.453125 -2.015625 7.035156 -2.164062 7.484375 -2.46875 C 7.929688 -2.78125 8.15625 -3.34375 8.15625 -4.15625 C 8.15625 -4.976562 7.921875 -5.53125 7.453125 -5.8125 C 6.992188 -6.09375 6.382812 -6.234375 5.625 -6.234375 L 4.203125 -6.234375 L 4.203125 -2.015625 Z M 5.734375 -2.015625"/></g></g></g><g fill-opacity="1" fill="#c85103"><g transform="translate(71.460552, 20.167627)"><g><path d="M 5.515625 0.265625 C 4.441406 0.265625 3.554688 0.0351562 2.859375 -0.421875 C 2.160156 -0.878906 1.648438 -1.488281 1.328125 -2.25 C 1.003906 -3.019531 0.84375 -3.890625 0.84375 -4.859375 C 0.84375 -5.847656 1.023438 -6.742188 1.390625 -7.546875 C 1.753906 -8.359375 2.285156 -9.003906 2.984375 -9.484375 C 3.679688 -9.960938 4.515625 -10.203125 5.484375 -10.203125 C 6.921875 -10.203125 7.945312 -9.785156 8.5625 -8.953125 C 9.1875 -8.117188 9.5 -6.878906 9.5 -5.234375 C 9.5 -4.921875 9.484375 -4.5625 9.453125 -4.15625 L 3.453125 -4.15625 C 3.492188 -3.351562 3.71875 -2.734375 4.125 -2.296875 C 4.539062 -1.859375 5.144531 -1.640625 5.9375 -1.640625 C 6.351562 -1.640625 6.796875 -1.726562 7.265625 -1.90625 C 7.742188 -2.09375 8.09375 -2.316406 8.3125 -2.578125 L 9.125 -0.6875 C 8.175781 -0.0507812 6.972656 0.265625 5.515625 0.265625 Z M 6.953125 -5.71875 C 6.953125 -6.695312 6.832031 -7.367188 6.59375 -7.734375 C 6.351562 -8.109375 6.003906 -8.296875 5.546875 -8.296875 C 4.890625 -8.296875 4.382812 -8.054688 4.03125 -7.578125 C 3.675781 -7.097656 3.476562 -6.476562 3.4375 -5.71875 Z M 6.953125 -5.71875"/></g></g></g><g fill-opacity="1" fill="#c85103"><g transform="translate(81.840132, 20.167627)"><g><path d="M 1.625 -7.859375 L 0.28125 -7.859375 L 0.28125 -9.953125 L 1.625 -9.953125 L 1.625 -11.796875 C 1.625 -12.753906 1.800781 -13.507812 2.15625 -14.0625 C 2.507812 -14.613281 2.9375 -14.992188 3.4375 -15.203125 C 3.945312 -15.410156 4.46875 -15.515625 5 -15.515625 C 5.5625 -15.515625 6.019531 -15.460938 6.375 -15.359375 C 6.738281 -15.265625 6.96875 -15.171875 7.0625 -15.078125 L 7.0625 -12.90625 C 6.914062 -13.070312 6.695312 -13.203125 6.40625 -13.296875 C 6.125 -13.398438 5.863281 -13.453125 5.625 -13.453125 C 4.570312 -13.453125 4.046875 -12.921875 4.046875 -11.859375 L 4.046875 -9.953125 L 6.453125 -9.953125 L 6.453125 -7.859375 L 4.046875 -7.859375 L 4.046875 0 L 1.625 0 Z M 1.625 -7.859375"/></g></g></g><g fill-opacity="1" fill="#c85103"><g transform="translate(88.219865, 20.167627)"><g><path d="M 5.4375 0.203125 C 4.46875 0.203125 3.640625 -0.00390625 2.953125 -0.421875 C 2.265625 -0.835938 1.738281 -1.429688 1.375 -2.203125 C 1.019531 -2.984375 0.84375 -3.914062 0.84375 -5 C 0.84375 -6.082031 1.023438 -7.015625 1.390625 -7.796875 C 1.765625 -8.578125 2.300781 -9.171875 3 -9.578125 C 3.707031 -9.992188 4.546875 -10.203125 5.515625 -10.203125 C 6.484375 -10.203125 7.304688 -9.988281 7.984375 -9.5625 C 8.660156 -9.144531 9.171875 -8.546875 9.515625 -7.765625 C 9.867188 -6.984375 10.046875 -6.0625 10.046875 -5 C 10.046875 -3.945312 9.863281 -3.023438 9.5 -2.234375 C 9.132812 -1.453125 8.609375 -0.847656 7.921875 -0.421875 C 7.234375 -0.00390625 6.40625 0.203125 5.4375 0.203125 Z M 5.484375 -1.796875 C 6.097656 -1.796875 6.566406 -2.066406 6.890625 -2.609375 C 7.210938 -3.148438 7.375 -3.945312 7.375 -5 C 7.375 -6.0625 7.210938 -6.863281 6.890625 -7.40625 C 6.566406 -7.945312 6.097656 -8.21875 5.484375 -8.21875 C 4.828125 -8.21875 4.332031 -7.960938 4 -7.453125 C 3.664062 -6.941406 3.5 -6.125 3.5 -5 C 3.5 -3.875 3.664062 -3.054688 4 -2.546875 C 4.332031 -2.046875 4.828125 -1.796875 5.484375 -1.796875 Z M 5.484375 -1.796875"/></g></g></g><g fill-opacity="1" fill="#c85103"><g transform="translate(99.099433, 20.167627)"><g><path d="M 1.375 -9.953125 L 3.640625 -9.953125 L 3.765625 -8.203125 C 3.972656 -8.710938 4.304688 -9.148438 4.765625 -9.515625 C 5.222656 -9.890625 5.875 -10.078125 6.71875 -10.078125 C 7.050781 -10.078125 7.359375 -10.023438 7.640625 -9.921875 L 7.078125 -7.296875 C 6.960938 -7.410156 6.828125 -7.492188 6.671875 -7.546875 C 6.515625 -7.597656 6.320312 -7.625 6.09375 -7.625 C 5.632812 -7.625 5.234375 -7.523438 4.890625 -7.328125 C 4.554688 -7.128906 4.300781 -6.898438 4.125 -6.640625 C 3.957031 -6.378906 3.875 -6.164062 3.875 -6 L 3.875 0 L 1.375 0 Z M 1.375 -9.953125"/></g></g></g><g fill-opacity="1" fill="#c85103"><g transform="translate(106.539126, 20.167627)"><g><path d="M 5.515625 0.265625 C 4.441406 0.265625 3.554688 0.0351562 2.859375 -0.421875 C 2.160156 -0.878906 1.648438 -1.488281 1.328125 -2.25 C 1.003906 -3.019531 0.84375 -3.890625 0.84375 -4.859375 C 0.84375 -5.847656 1.023438 -6.742188 1.390625 -7.546875 C 1.753906 -8.359375 2.285156 -9.003906 2.984375 -9.484375 C 3.679688 -9.960938 4.515625 -10.203125 5.484375 -10.203125 C 6.921875 -10.203125 7.945312 -9.785156 8.5625 -8.953125 C 9.1875 -8.117188 9.5 -6.878906 9.5 -5.234375 C 9.5 -4.921875 9.484375 -4.5625 9.453125 -4.15625 L 3.453125 -4.15625 C 3.492188 -3.351562 3.71875 -2.734375 4.125 -2.296875 C 4.539062 -1.859375 5.144531 -1.640625 5.9375 -1.640625 C 6.351562 -1.640625 6.796875 -1.726562 7.265625 -1.90625 C 7.742188 -2.09375 8.09375 -2.316406 8.3125 -2.578125 L 9.125 -0.6875 C 8.175781 -0.0507812 6.972656 0.265625 5.515625 0.265625 Z M 6.953125 -5.71875 C 6.953125 -6.695312 6.832031 -7.367188 6.59375 -7.734375 C 6.351562 -8.109375 6.003906 -8.296875 5.546875 -8.296875 C 4.890625 -8.296875 4.382812 -8.054688 4.03125 -7.578125 C 3.675781 -7.097656 3.476562 -6.476562 3.4375 -5.71875 Z M 6.953125 -5.71875"/></g></g></g><g fill-opacity="1" fill="#c85103"><g transform="translate(116.918706, 20.167627)"><g/></g></g><g fill-opacity="1" fill="#c85103"><g transform="translate(120.718547, 20.167627)"><g><path d="M 6.40625 0.234375 C 5.394531 0.234375 4.457031 -0.0351562 3.59375 -0.578125 C 2.738281 -1.117188 2.046875 -1.945312 1.515625 -3.0625 C 0.992188 -4.175781 0.734375 -5.539062 0.734375 -7.15625 C 0.734375 -8.632812 0.992188 -9.898438 1.515625 -10.953125 C 2.035156 -12.015625 2.738281 -12.816406 3.625 -13.359375 C 4.519531 -13.910156 5.519531 -14.1875 6.625 -14.1875 C 7.289062 -14.1875 7.859375 -14.117188 8.328125 -13.984375 C 8.796875 -13.859375 9.160156 -13.707031 9.421875 -13.53125 C 9.691406 -13.363281 9.953125 -13.164062 10.203125 -12.9375 L 9.078125 -10.84375 C 8.847656 -11.09375 8.640625 -11.285156 8.453125 -11.421875 C 8.273438 -11.554688 8.046875 -11.664062 7.765625 -11.75 C 7.492188 -11.832031 7.144531 -11.875 6.71875 -11.875 C 6.050781 -11.875 5.476562 -11.675781 5 -11.28125 C 4.519531 -10.894531 4.148438 -10.359375 3.890625 -9.671875 C 3.640625 -8.984375 3.515625 -8.191406 3.515625 -7.296875 C 3.515625 -6.179688 3.644531 -5.222656 3.90625 -4.421875 C 4.175781 -3.628906 4.535156 -3.035156 4.984375 -2.640625 C 5.429688 -2.242188 5.9375 -2.046875 6.5 -2.046875 C 7.09375 -2.046875 7.617188 -2.128906 8.078125 -2.296875 C 8.535156 -2.460938 8.882812 -2.671875 9.125 -2.921875 L 10.21875 -0.9375 C 9.8125 -0.601562 9.316406 -0.320312 8.734375 -0.09375 C 8.160156 0.125 7.382812 0.234375 6.40625 0.234375 Z M 6.40625 0.234375"/></g></g></g><g fill-opacity="1" fill="#c85103"><g transform="translate(131.258125, 20.167627)"><g><path d="M 5.4375 0.203125 C 4.46875 0.203125 3.640625 -0.00390625 2.953125 -0.421875 C 2.265625 -0.835938 1.738281 -1.429688 1.375 -2.203125 C 1.019531 -2.984375 0.84375 -3.914062 0.84375 -5 C 0.84375 -6.082031 1.023438 -7.015625 1.390625 -7.796875 C 1.765625 -8.578125 2.300781 -9.171875 3 -9.578125 C 3.707031 -9.992188 4.546875 -10.203125 5.515625 -10.203125 C 6.484375 -10.203125 7.304688 -9.988281 7.984375 -9.5625 C 8.660156 -9.144531 9.171875 -8.546875 9.515625 -7.765625 C 9.867188 -6.984375 10.046875 -6.0625 10.046875 -5 C 10.046875 -3.945312 9.863281 -3.023438 9.5 -2.234375 C 9.132812 -1.453125 8.609375 -0.847656 7.921875 -0.421875 C 7.234375 -0.00390625 6.40625 0.203125 5.4375 0.203125 Z M 5.484375 -1.796875 C 6.097656 -1.796875 6.566406 -2.066406 6.890625 -2.609375 C 7.210938 -3.148438 7.375 -3.945312 7.375 -5 C 7.375 -6.0625 7.210938 -6.863281 6.890625 -7.40625 C 6.566406 -7.945312 6.097656 -8.21875 5.484375 -8.21875 C 4.828125 -8.21875 4.332031 -7.960938 4 -7.453125 C 3.664062 -6.941406 3.5 -6.125 3.5 -5 C 3.5 -3.875 3.664062 -3.054688 4 -2.546875 C 4.332031 -2.046875 4.828125 -1.796875 5.484375 -1.796875 Z M 5.484375 -1.796875"/></g></g></g><g fill-opacity="1" fill="#c85103"><g transform="translate(142.137683, 20.167627)"><g><path d="M 6.78125 -10.203125 C 7.769531 -10.203125 8.515625 -9.882812 9.015625 -9.25 C 9.523438 -8.625 9.78125 -7.734375 9.78125 -6.578125 L 9.78125 0 L 7.21875 0 L 7.21875 -6.359375 C 7.21875 -6.921875 7.097656 -7.367188 6.859375 -7.703125 C 6.617188 -8.046875 6.265625 -8.21875 5.796875 -8.21875 C 5.484375 -8.21875 5.191406 -8.132812 4.921875 -7.96875 C 4.648438 -7.8125 4.4375 -7.59375 4.28125 -7.3125 C 4.125 -7.03125 4.046875 -6.710938 4.046875 -6.359375 L 4.046875 0 L 1.484375 0 L 1.484375 -9.953125 L 3.796875 -9.953125 L 3.84375 -8.65625 C 4.53125 -9.6875 5.507812 -10.203125 6.78125 -10.203125 Z M 6.78125 -10.203125"/></g></g></g><g fill-opacity="1" fill="#c85103"><g transform="translate(153.317232, 20.167627)"><g><path d="M 1.625 -7.859375 L 0.28125 -7.859375 L 0.28125 -9.953125 L 1.625 -9.953125 L 1.625 -11.796875 C 1.625 -12.753906 1.800781 -13.507812 2.15625 -14.0625 C 2.507812 -14.613281 2.9375 -14.992188 3.4375 -15.203125 C 3.945312 -15.410156 4.46875 -15.515625 5 -15.515625 C 5.5625 -15.515625 6.019531 -15.460938 6.375 -15.359375 C 6.738281 -15.265625 6.96875 -15.171875 7.0625 -15.078125 L 7.0625 -12.90625 C 6.914062 -13.070312 6.695312 -13.203125 6.40625 -13.296875 C 6.125 -13.398438 5.863281 -13.453125 5.625 -13.453125 C 4.570312 -13.453125 4.046875 -12.921875 4.046875 -11.859375 L 4.046875 -9.953125 L 6.453125 -9.953125 L 6.453125 -7.859375 L 4.046875 -7.859375 L 4.046875 0 L 1.625 0 Z M 1.625 -7.859375"/></g></g></g><g fill-opacity="1" fill="#c85103"><g transform="translate(160.296956, 20.167627)"><g><path d="M 1.40625 -14.234375 L 4.203125 -14.234375 L 4.203125 -11.578125 L 1.40625 -11.578125 Z M 1.5 -9.953125 L 4.09375 -9.953125 L 4.09375 0 L 1.5 0 Z M 1.5 -9.953125"/></g></g></g><g fill-opacity="1" fill="#c85103"><g transform="translate(165.896723, 20.167627)"><g><path d="M 4.8125 0.28125 C 4.019531 0.28125 3.320312 0.0664062 2.71875 -0.359375 C 2.125 -0.796875 1.664062 -1.410156 1.34375 -2.203125 C 1.019531 -2.992188 0.859375 -3.910156 0.859375 -4.953125 C 0.859375 -6.617188 1.195312 -7.910156 1.875 -8.828125 C 2.550781 -9.742188 3.546875 -10.203125 4.859375 -10.203125 C 5.546875 -10.203125 6.125 -10.03125 6.59375 -9.6875 C 7.0625 -9.351562 7.363281 -8.867188 7.5 -8.234375 L 7.3125 -9.703125 L 7.3125 -15.203125 L 9.6875 -15.203125 L 9.6875 0 L 7.5 0 L 7.5 -2.046875 C 7.3125 -1.328125 6.988281 -0.757812 6.53125 -0.34375 C 6.070312 0.0703125 5.5 0.28125 4.8125 0.28125 Z M 5.40625 -1.703125 C 5.738281 -1.703125 6.046875 -1.8125 6.328125 -2.03125 C 6.609375 -2.257812 6.832031 -2.613281 7 -3.09375 C 7.175781 -3.582031 7.265625 -4.191406 7.265625 -4.921875 C 7.265625 -5.972656 7.113281 -6.78125 6.8125 -7.34375 C 6.507812 -7.90625 6.054688 -8.1875 5.453125 -8.1875 C 5.109375 -8.1875 4.785156 -8.082031 4.484375 -7.875 C 4.179688 -7.664062 3.929688 -7.320312 3.734375 -6.84375 C 3.535156 -6.363281 3.4375 -5.734375 3.4375 -4.953125 C 3.4375 -4.242188 3.519531 -3.644531 3.6875 -3.15625 C 3.863281 -2.675781 4.097656 -2.3125 4.390625 -2.0625 C 4.691406 -1.820312 5.03125 -1.703125 5.40625 -1.703125 Z M 5.40625 -1.703125"/></g></g></g><g fill-opacity="1" fill="#c85103"><g transform="translate(176.736292, 20.167627)"><g><path d="M 5.515625 0.265625 C 4.441406 0.265625 3.554688 0.0351562 2.859375 -0.421875 C 2.160156 -0.878906 1.648438 -1.488281 1.328125 -2.25 C 1.003906 -3.019531 0.84375 -3.890625 0.84375 -4.859375 C 0.84375 -5.847656 1.023438 -6.742188 1.390625 -7.546875 C 1.753906 -8.359375 2.285156 -9.003906 2.984375 -9.484375 C 3.679688 -9.960938 4.515625 -10.203125 5.484375 -10.203125 C 6.921875 -10.203125 7.945312 -9.785156 8.5625 -8.953125 C 9.1875 -8.117188 9.5 -6.878906 9.5 -5.234375 C 9.5 -4.921875 9.484375 -4.5625 9.453125 -4.15625 L 3.453125 -4.15625 C 3.492188 -3.351562 3.71875 -2.734375 4.125 -2.296875 C 4.539062 -1.859375 5.144531 -1.640625 5.9375 -1.640625 C 6.351562 -1.640625 6.796875 -1.726562 7.265625 -1.90625 C 7.742188 -2.09375 8.09375 -2.316406 8.3125 -2.578125 L 9.125 -0.6875 C 8.175781 -0.0507812 6.972656 0.265625 5.515625 0.265625 Z M 6.953125 -5.71875 C 6.953125 -6.695312 6.832031 -7.367188 6.59375 -7.734375 C 6.351562 -8.109375 6.003906 -8.296875 5.546875 -8.296875 C 4.890625 -8.296875 4.382812 -8.054688 4.03125 -7.578125 C 3.675781 -7.097656 3.476562 -6.476562 3.4375 -5.71875 Z M 6.953125 -5.71875"/></g></g></g><g fill-opacity="1" fill="#c85103"><g transform="translate(187.115862, 20.167627)"><g><path d="M 6.78125 -10.203125 C 7.769531 -10.203125 8.515625 -9.882812 9.015625 -9.25 C 9.523438 -8.625 9.78125 -7.734375 9.78125 -6.578125 L 9.78125 0 L 7.21875 0 L 7.21875 -6.359375 C 7.21875 -6.921875 7.097656 -7.367188 6.859375 -7.703125 C 6.617188 -8.046875 6.265625 -8.21875 5.796875 -8.21875 C 5.484375 -8.21875 5.191406 -8.132812 4.921875 -7.96875 C 4.648438 -7.8125 4.4375 -7.59375 4.28125 -7.3125 C 4.125 -7.03125 4.046875 -6.710938 4.046875 -6.359375 L 4.046875 0 L 1.484375 0 L 1.484375 -9.953125 L 3.796875 -9.953125 L 3.84375 -8.65625 C 4.53125 -9.6875 5.507812 -10.203125 6.78125 -10.203125 Z M 6.78125 -10.203125"/></g></g></g><g fill-opacity="1" fill="#c85103"><g transform="translate(198.295421, 20.167627)"><g><path d="M 5.40625 0.234375 C 4.382812 0.234375 3.53125 0.00390625 2.84375 -0.453125 C 2.164062 -0.921875 1.664062 -1.539062 1.34375 -2.3125 C 1.019531 -3.09375 0.859375 -3.96875 0.859375 -4.9375 C 0.859375 -5.882812 1.035156 -6.757812 1.390625 -7.5625 C 1.753906 -8.363281 2.289062 -9.003906 3 -9.484375 C 3.707031 -9.960938 4.554688 -10.203125 5.546875 -10.203125 C 6.148438 -10.203125 6.679688 -10.132812 7.140625 -10 C 7.597656 -9.875 8.035156 -9.640625 8.453125 -9.296875 L 7.640625 -7.1875 C 7.441406 -7.46875 7.15625 -7.691406 6.78125 -7.859375 C 6.40625 -8.035156 6.039062 -8.125 5.6875 -8.125 C 4.226562 -8.125 3.5 -7.066406 3.5 -4.953125 C 3.5 -3.859375 3.675781 -3.054688 4.03125 -2.546875 C 4.382812 -2.046875 4.9375 -1.796875 5.6875 -1.796875 C 6.125 -1.796875 6.523438 -1.878906 6.890625 -2.046875 C 7.265625 -2.210938 7.5625 -2.414062 7.78125 -2.65625 L 8.546875 -0.875 C 8.390625 -0.71875 8.164062 -0.550781 7.875 -0.375 C 7.582031 -0.207031 7.222656 -0.0664062 6.796875 0.046875 C 6.367188 0.171875 5.90625 0.234375 5.40625 0.234375 Z M 5.40625 0.234375"/></g></g></g><g fill-opacity="1" fill="#c85103"><g transform="translate(207.315049, 20.167627)"><g><path d="M 5.515625 0.265625 C 4.441406 0.265625 3.554688 0.0351562 2.859375 -0.421875 C 2.160156 -0.878906 1.648438 -1.488281 1.328125 -2.25 C 1.003906 -3.019531 0.84375 -3.890625 0.84375 -4.859375 C 0.84375 -5.847656 1.023438 -6.742188 1.390625 -7.546875 C 1.753906 -8.359375 2.285156 -9.003906 2.984375 -9.484375 C 3.679688 -9.960938 4.515625 -10.203125 5.484375 -10.203125 C 6.921875 -10.203125 7.945312 -9.785156 8.5625 -8.953125 C 9.1875 -8.117188 9.5 -6.878906 9.5 -5.234375 C 9.5 -4.921875 9.484375 -4.5625 9.453125 -4.15625 L 3.453125 -4.15625 C 3.492188 -3.351562 3.71875 -2.734375 4.125 -2.296875 C 4.539062 -1.859375 5.144531 -1.640625 5.9375 -1.640625 C 6.351562 -1.640625 6.796875 -1.726562 7.265625 -1.90625 C 7.742188 -2.09375 8.09375 -2.316406 8.3125 -2.578125 L 9.125 -0.6875 C 8.175781 -0.0507812 6.972656 0.265625 5.515625 0.265625 Z M 6.953125 -5.71875 C 6.953125 -6.695312 6.832031 -7.367188 6.59375 -7.734375 C 6.351562 -8.109375 6.003906 -8.296875 5.546875 -8.296875 C 4.890625 -8.296875 4.382812 -8.054688 4.03125 -7.578125 C 3.675781 -7.097656 3.476562 -6.476562 3.4375 -5.71875 Z M 6.953125 -5.71875"/></g></g></g></g></g><g transform="matrix(1, 0, 0, 1, 7, 122)"><g clip-path="url(#7e96034e82)"><g clip-path="url(#a0ec95bbce)"><path fill-rule="evenodd" fill-opacity="1" d="M 75.914062 50.800781 L 65.628906 50.800781 L 47.121094 20.980469 L 57.402344 20.980469 C 59.675781 20.980469 61.515625 19.140625 61.515625 16.867188 C 61.519531 15.734375 61.054688 14.707031 60.316406 13.957031 C 59.5625 13.214844 58.535156 12.753906 57.402344 12.753906 L 45.066406 12.753906 L 45.066406 38.460938 L 36.839844 38.460938 L 36.839844 4.527344 L 57.402344 4.527344 C 64.222656 4.527344 69.742188 10.050781 69.742188 16.867188 C 69.742188 22.070312 66.523438 26.523438 61.96875 28.332031 Z M 75.914062 50.800781" fill="#164e63"/></g><g clip-path="url(#b1a8d8745a)"><path fill-rule="evenodd" fill-opacity="1" d="M 40.953125 12.753906 L 45.066406 12.753906 L 45.066406 38.460938 L 40.953125 38.460938 Z M 40.953125 12.753906" fill="#164e63"/></g><g clip-path="url(#3cc98165c1)"><path fill-rule="evenodd" fill-opacity="1" d="M 75.914062 50.800781 L 70.773438 50.800781 L 56.828125 28.332031 C 61.382812 26.523438 64.601562 22.070312 64.601562 16.867188 C 64.601562 10.050781 59.082031 4.527344 52.261719 4.527344 L 57.402344 4.527344 C 64.222656 4.527344 69.742188 10.050781 69.742188 16.867188 C 69.742188 22.070312 66.523438 26.523438 61.96875 28.332031 Z M 75.914062 50.800781" fill="#164e63"/></g><g clip-path="url(#dc0c948e1e)"><g clip-path="url(#f139a7dcef)"><g clip-path="url(#34da0b190f)"><path fill-rule="nonzero" fill-opacity="1" d="M 77.894531 14.105469 L 69.175781 39.320312 L 77.816406 39.105469 L 79.789062 33.058594 L 82.027344 25.761719 Z M 88.890625 5.003906 L 81.03125 5.195312 L 85.132812 16.144531 L 85.136719 16.132812 L 91.222656 32.777344 L 93.53125 38.722656 L 102.339844 38.503906 L 88.890625 5.003906" fill="#164e63"/></g></g></g><g clip-path="url(#3e37676600)"><g transform="matrix(1, 0, 0, 1, 168, 0)"><g clip-path="url(#d0e229fbe7)"><g fill-opacity="1" fill="#164e63"><g transform="translate(0.553927, 40.053744)"><g><path d="M 1.015625 -18.1875 C 1.015625 -23.445312 2.804688 -27.894531 6.390625 -31.53125 C 9.972656 -35.175781 14.289062 -37 19.34375 -37 C 24.414062 -37 28.726562 -35.1875 32.28125 -31.5625 C 35.832031 -27.9375 37.609375 -23.476562 37.609375 -18.1875 C 37.609375 -12.875 35.863281 -8.40625 32.375 -4.78125 C 28.882812 -1.15625 24.539062 0.65625 19.34375 0.65625 C 14.019531 0.65625 9.632812 -1.140625 6.1875 -4.734375 C 2.738281 -8.328125 1.015625 -12.8125 1.015625 -18.1875 Z M 9.953125 -18.1875 C 9.953125 -16.28125 10.242188 -14.539062 10.828125 -12.96875 C 11.421875 -11.394531 12.453125 -10.066406 13.921875 -8.984375 C 15.390625 -7.898438 17.195312 -7.359375 19.34375 -7.359375 C 22.425781 -7.359375 24.75 -8.414062 26.3125 -10.53125 C 27.882812 -12.644531 28.671875 -15.195312 28.671875 -18.1875 C 28.671875 -21.15625 27.867188 -23.703125 26.265625 -25.828125 C 24.671875 -27.960938 22.363281 -29.03125 19.34375 -29.03125 C 16.34375 -29.03125 14.023438 -27.960938 12.390625 -25.828125 C 10.765625 -23.703125 9.953125 -21.15625 9.953125 -18.1875 Z M 9.953125 -18.1875"/></g></g></g></g></g></g><g clip-path="url(#14c2d94394)"><g clip-path="url(#700e68b492)"><g transform="matrix(1, 0, 0, 1, 183, 17)"><g clip-path="url(#723c662487)"><g clip-path="url(#3ee889f127)"><g clip-path="url(#ba2c148e43)"><path fill-rule="nonzero" fill-opacity="1" d="M 0.0546875 0.222656 L 9.683594 0.222656 L 9.683594 9.851562 L 0.0546875 9.851562 Z M 0.0546875 0.222656" fill="#c85103"/></g></g></g></g></g></g><g clip-path="url(#b838d23c53)"><path fill-rule="evenodd" fill-opacity="1" d="M 250.988281 51.941406 L 240.488281 51.941406 L 221.589844 21.492188 L 232.089844 21.492188 C 234.410156 21.492188 236.289062 19.613281 236.289062 17.292969 C 236.289062 16.140625 235.816406 15.089844 235.058594 14.320312 C 234.292969 13.566406 233.242188 13.09375 232.089844 13.09375 L 219.488281 13.09375 L 219.488281 39.34375 L 211.089844 39.34375 L 211.089844 4.695312 L 232.089844 4.695312 C 239.050781 4.695312 244.6875 10.332031 244.6875 17.292969 C 244.6875 22.605469 241.402344 27.152344 236.75 29 Z M 250.988281 51.941406" fill="#164e63"/></g><g clip-path="url(#11a8611f56)"><path fill-rule="evenodd" fill-opacity="1" d="M 215.289062 13.09375 L 219.488281 13.09375 L 219.488281 39.34375 L 215.289062 39.34375 Z M 215.289062 13.09375" fill="#164e63"/></g><g clip-path="url(#c48d224bf0)"><path fill-rule="evenodd" fill-opacity="1" d="M 250.988281 51.941406 L 245.738281 51.941406 L 231.5 29 C 236.152344 27.152344 239.4375 22.605469 239.4375 17.292969 C 239.4375 10.332031 233.800781 4.695312 226.839844 4.695312 L 232.089844 4.695312 C 239.050781 4.695312 244.6875 10.332031 244.6875 17.292969 C 244.6875 22.605469 241.402344 27.152344 236.75 29 Z M 250.988281 51.941406" fill="#164e63"/></g><g clip-path="url(#ba21ce4d06)"><g transform="matrix(1, 0, 0, 1, 0, 1)"><g clip-path="url(#5ade1a5936)"><g fill-opacity="1" fill="#164e63"><g transform="translate(0.211612, 39.118973)"><g><path d="M 21.390625 -7.28125 C 22.617188 -7.28125 23.8125 -7.46875 24.96875 -7.84375 C 26.125 -8.21875 26.972656 -8.578125 27.515625 -8.921875 L 28.328125 -9.46875 L 31.765625 -2.609375 C 31.648438 -2.523438 31.488281 -2.410156 31.28125 -2.265625 C 31.082031 -2.128906 30.617188 -1.867188 29.890625 -1.484375 C 29.160156 -1.097656 28.378906 -0.757812 27.546875 -0.46875 C 26.722656 -0.1875 25.640625 0.0664062 24.296875 0.296875 C 22.953125 0.523438 21.566406 0.640625 20.140625 0.640625 C 16.859375 0.640625 13.742188 -0.164062 10.796875 -1.78125 C 7.859375 -3.394531 5.488281 -5.613281 3.6875 -8.4375 C 1.882812 -11.269531 0.984375 -14.328125 0.984375 -17.609375 C 0.984375 -20.097656 1.507812 -22.484375 2.5625 -24.765625 C 3.625 -27.054688 5.03125 -29.015625 6.78125 -30.640625 C 8.539062 -32.273438 10.59375 -33.578125 12.9375 -34.546875 C 15.28125 -35.515625 17.679688 -36 20.140625 -36 C 22.429688 -36 24.539062 -35.726562 26.46875 -35.1875 C 28.394531 -34.644531 29.757812 -34.101562 30.5625 -33.5625 L 31.765625 -32.75 L 28.328125 -25.890625 C 28.128906 -26.054688 27.828125 -26.257812 27.421875 -26.5 C 27.023438 -26.75 26.226562 -27.070312 25.03125 -27.46875 C 23.832031 -27.875 22.617188 -28.078125 21.390625 -28.078125 C 19.441406 -28.078125 17.695312 -27.757812 16.15625 -27.125 C 14.613281 -26.5 13.390625 -25.671875 12.484375 -24.640625 C 11.585938 -23.609375 10.90625 -22.5 10.4375 -21.3125 C 9.96875 -20.132812 9.734375 -18.929688 9.734375 -17.703125 C 9.734375 -15.015625 10.738281 -12.601562 12.75 -10.46875 C 14.757812 -8.34375 17.640625 -7.28125 21.390625 -7.28125 Z M 21.390625 -7.28125"/></g></g></g></g></g></g><g transform="matrix(1, 0, 0, 1, 135, 1)"><g clip-path="url(#de52190911)"><g clip-path="url(#a416c26f53)"><g fill-opacity="1" fill="#164e63"><g transform="translate(0.988549, 38.826943)"><g><path d="M 34.484375 0 L 23.46875 0 L 10.546875 -14.875 L 10.546875 0 L 2.546875 0 L 2.546875 -35.078125 L 10.546875 -35.078125 L 10.546875 -20.75 L 22.578125 -35.078125 L 32.265625 -35.078125 L 18.15625 -18.453125 Z M 34.484375 0"/></g></g></g></g></g></g><g clip-path="url(#3909637cb1)"><g transform="matrix(1, 0, 0, 1, 101, 0)"><g clip-path="url(#4729cdbbb3)"><g clip-path="url(#cd479f179d)"><g fill-opacity="1" fill="#164e63"><g transform="translate(0.377722, 39.014481)"><g><path d="M 21.390625 -7.28125 C 22.617188 -7.28125 23.8125 -7.46875 24.96875 -7.84375 C 26.125 -8.21875 26.972656 -8.578125 27.515625 -8.921875 L 28.328125 -9.46875 L 31.765625 -2.609375 C 31.648438 -2.523438 31.488281 -2.410156 31.28125 -2.265625 C 31.082031 -2.128906 30.617188 -1.867188 29.890625 -1.484375 C 29.160156 -1.097656 28.378906 -0.757812 27.546875 -0.46875 C 26.722656 -0.1875 25.640625 0.0664062 24.296875 0.296875 C 22.953125 0.523438 21.566406 0.640625 20.140625 0.640625 C 16.859375 0.640625 13.742188 -0.164062 10.796875 -1.78125 C 7.859375 -3.394531 5.488281 -5.613281 3.6875 -8.4375 C 1.882812 -11.269531 0.984375 -14.328125 0.984375 -17.609375 C 0.984375 -20.097656 1.507812 -22.484375 2.5625 -24.765625 C 3.625 -27.054688 5.03125 -29.015625 6.78125 -30.640625 C 8.539062 -32.273438 10.59375 -33.578125 12.9375 -34.546875 C 15.28125 -35.515625 17.679688 -36 20.140625 -36 C 22.429688 -36 24.539062 -35.726562 26.46875 -35.1875 C 28.394531 -34.644531 29.757812 -34.101562 30.5625 -33.5625 L 31.765625 -32.75 L 28.328125 -25.890625 C 28.128906 -26.054688 27.828125 -26.257812 27.421875 -26.5 C 27.023438 -26.75 26.226562 -27.070312 25.03125 -27.46875 C 23.832031 -27.875 22.617188 -28.078125 21.390625 -28.078125 C 19.441406 -28.078125 17.695312 -27.757812 16.15625 -27.125 C 14.613281 -26.5 13.390625 -25.671875 12.484375 -24.640625 C 11.585938 -23.609375 10.90625 -22.5 10.4375 -21.3125 C 9.96875 -20.132812 9.734375 -18.929688 9.734375 -17.703125 C 9.734375 -15.015625 10.738281 -12.601562 12.75 -10.46875 C 14.757812 -8.34375 17.640625 -7.28125 21.390625 -7.28125 Z M 21.390625 -7.28125"/></g></g></g></g></g></g></g><g clip-path="url(#d12f181d16)"><path fill-rule="nonzero" fill-opacity="1" d="M 264.335938 13.296875 L 278.066406 35.175781 L 250.605469 35.175781 L 264.335938 13.296875 M 264.335938 5.144531 L 242.882812 39.46875 L 285.789062 39.46875 Z M 264.335938 5.144531" fill="#164e63"/></g><g clip-path="url(#f0d49051eb)"><path fill-rule="nonzero" fill-opacity="1" d="M 264.335938 16.207031 L 275.628906 34.207031 L 253.042969 34.207031 L 264.335938 16.207031 M 264.335938 9.5 L 246.6875 37.734375 L 281.980469 37.734375 Z M 264.335938 9.5" fill="#164e63"/></g><g clip-path="url(#bab4dadeec)"><path fill-rule="nonzero" fill-opacity="1" d="M 264.707031 16.171875 L 274.953125 32.503906 L 254.460938 32.503906 L 264.707031 16.171875 M 264.707031 10.085938 L 248.695312 35.707031 L 280.71875 35.707031 Z M 264.707031 10.085938" fill="#164e63"/></g></g></g></svg>