<svg xmlns="http://www.w3.org/2000/svg" width="583" height="237" viewBox="0 0 583 237">
<g>
<path d="M 136.32,56.11 L 140.17,56.12 L 141.89,56.12 L 145.20,56.14 L 146.67,56.15 L 149.50,56.18 L 150.73,56.20 L 153.10,56.25 L 154.13,56.27 L 156.08,56.33 L 156.91,56.37 L 158.48,56.44 L 159.13,56.48 L 160.35,56.57 L 160.85,56.62 L 161.77,56.73 L 162.13,56.79 L 163.29,57.06 L 163.56,57.22 L 163.91,57.56 L 163.88,57.77 L 163.80,59.48 L 163.96,60.46 L 164.14,60.86 L 164.57,61.60 L 164.88,61.88 L 165.56,62.36 L 166.00,62.50 L 166.65,62.85 L 167.00,63.36 L 167.14,63.88 L 167.28,64.47 L 167.33,64.85 L 167.45,65.70 L 167.49,66.24 L 167.59,67.40 L 167.63,68.12 L 167.70,69.65 L 167.73,70.58 L 167.79,72.54 L 167.81,73.70 L 167.85,76.13 L 167.87,77.55 L 167.90,80.53 L 167.91,82.23 L 167.93,85.79 L 167.93,87.82 L 167.94,92.02 L 167.94,94.38 L 167.95,99.29 L 167.94,102.02 L 167.94,107.67 L 167.94,110.80 L 167.93,117.27 L 167.93,120.82 L 167.90,132.50 L 167.87,140.01 L 167.84,143.57 L 167.80,150.54 L 167.77,153.78 L 167.71,160.05 L 167.67,162.87 L 167.60,168.27 L 167.57,170.59 L 167.53,172.83 L 167.51,173.85 L 167.47,175.81 L 167.44,176.68 L 167.40,178.33 L 167.38,179.03 L 167.34,180.36 L 167.31,180.89 L 167.27,181.86 L 167.25,182.21 L 167.20,182.81 L 167.18,182.96 L 166.69,185.27 L 166.26,186.49 L 165.96,186.99 L 165.28,187.95 L 164.81,188.39 L 163.78,189.25 L 163.10,189.71 L 159.70,192.00 L 107.10,192.00 L 98.22,191.99 L 92.83,191.99 L 90.38,191.99 L 85.66,191.98 L 83.53,191.97 L 79.42,191.96 L 77.58,191.95 L 74.05,191.93 L 72.48,191.92 L 69.47,191.89 L 68.14,191.87 L 65.60,191.83 L 64.50,191.80 L 62.39,191.75 L 61.48,191.72 L 59.75,191.65 L 59.02,191.61 L 57.62,191.53 L 57.04,191.48 L 54.96,191.27 L 54.24,191.14 L 52.98,190.85 L 52.52,190.67 L 51.69,190.28 L 51.31,190.05 L 48.75,188.09 L 48.02,187.38 L 47.73,187.04 L 47.21,186.39 L 47.06,186.12 L 46.93,185.64 L 46.85,185.10 L 46.81,184.72 L 46.74,183.87 L 46.70,183.34 L 46.63,182.19 L 46.59,181.50 L 46.53,180.05 L 46.50,179.21 L 46.44,177.45 L 46.41,176.46 L 46.36,174.39 L 46.33,173.25 L 46.28,170.87 L 46.26,169.57 L 46.22,166.88 L 46.20,165.42 L 46.16,162.42 L 46.15,160.81 L 46.12,157.49 L 46.10,155.72 L 46.08,152.09 L 46.07,150.16 L 46.04,146.21 L 46.04,144.12 L 46.02,139.86 L 46.02,137.60 L 46.01,133.02 L 46.00,130.60 L 46.00,125.70 L 46.00,62.11 L 48.41,59.31 L 50.83,56.50 L 105.16,56.21 L 114.40,56.17 L 120.05,56.14 L 122.64,56.14 L 127.65,56.12 L 129.93,56.12 L 134.33,56.11 M 117.50,73.50 L 113.64,73.52 L 111.43,73.55 L 110.47,73.58 L 108.64,73.66 L 107.84,73.71 L 106.31,73.84 L 105.63,73.92 L 103.05,74.33 L 101.84,74.66 L 99.42,75.41 L 98.00,75.94 L 95.44,76.94 L 93.90,77.57 L 93.26,77.85 L 92.10,78.38 L 91.71,78.59 L 91.07,78.95 L 91.00,79.04 L 90.33,79.68 L 89.47,80.43 L 88.88,80.94 L 87.61,82.01 L 86.87,82.62 L 85.33,83.89 L 84.50,84.56 L 79.77,88.59 L 78.46,89.79 L 77.96,90.28 L 77.06,91.18 L 76.84,91.46 L 76.19,92.39 L 75.64,93.31 L 75.31,93.91 L 74.60,95.20 L 74.20,95.98 L 73.35,97.63 L 72.87,98.58 L 71.88,100.58 L 71.33,101.70 L 70.21,104.02 L 69.60,105.30 L 68.36,107.95 L 67.69,109.38 L 66.32,112.32 L 65.60,113.90 L 65.37,114.65 L 65.23,115.38 L 65.17,115.85 L 64.92,117.97 L 64.83,119.35 L 64.66,122.31 L 64.61,124.00 L 64.54,127.52 L 64.55,129.40 L 64.61,134.52 L 64.72,137.45 L 64.81,138.73 L 65.04,141.17 L 65.22,142.27 L 65.62,144.38 L 65.90,145.36 L 66.51,147.30 L 66.91,148.25 L 67.78,150.17 L 68.32,151.18 L 69.50,153.25 L 70.21,154.39 L 71.73,156.75 L 72.64,158.10 L 75.25,161.74 L 76.83,163.64 L 77.65,164.42 L 79.34,165.90 L 80.32,166.58 L 82.41,167.93 L 83.72,168.66 L 89.62,171.71 L 91.60,172.65 L 92.48,173.05 L 94.16,173.78 L 94.81,174.02 L 97.57,174.92 L 99.12,175.21 L 102.32,175.69 L 104.04,175.78 L 107.54,175.87 L 109.36,175.77 L 113.04,175.48 L 114.90,175.20 L 118.62,174.55 L 120.45,174.10 L 124.08,173.12 L 125.82,172.51 L 129.24,171.21 L 130.83,170.45 L 133.91,168.85 L 135.27,167.94 L 138.37,165.41 L 139.65,163.73 L 139.91,162.87 L 140.16,161.12 L 139.92,160.19 L 139.18,158.28 L 138.45,157.23 L 136.36,154.83 L 134.94,153.87 L 134.12,153.70 L 132.37,153.56 L 131.28,153.77 L 130.15,154.03 L 129.51,154.23 L 128.18,154.66 L 127.42,154.94 L 121.78,156.51 L 118.01,157.05 L 116.16,157.07 L 112.48,156.96 L 110.72,156.68 L 107.24,155.96 L 105.62,155.38 L 102.46,154.10 L 101.04,153.25 L 98.30,151.44 L 97.12,150.34 L 94.92,148.04 L 94.05,146.71 L 92.48,143.95 L 91.97,142.41 L 91.23,138.35 L 91.22,135.43 L 91.44,133.91 L 92.02,130.84 L 92.50,129.31 L 93.59,126.24 L 94.30,124.75 L 95.84,121.83 L 96.75,120.47 L 98.65,117.84 L 99.73,116.68 L 101.94,114.48 L 103.14,113.59 L 105.58,111.97 L 106.87,111.42 L 110.00,110.35 L 111.76,110.05 L 112.56,110.12 L 114.13,110.41 L 114.91,110.78 L 116.51,111.67 L 117.41,112.35 L 120.50,114.71 L 130.50,107.60 L 134.67,104.56 L 137.25,102.59 L 138.42,101.65 L 140.71,99.79 L 141.73,98.91 L 143.70,97.17 L 144.56,96.36 L 146.20,94.77 L 146.89,94.03 L 148.18,92.60 L 148.68,91.95 L 149.60,90.69 L 149.91,90.14 L 150.44,89.08 L 150.56,88.63 L 150.67,87.36 L 150.53,86.52 L 150.35,86.10 L 149.91,85.24 L 149.57,84.81 L 148.81,83.92 L 148.31,83.47 L 147.22,82.54 L 146.55,82.06 L 145.12,81.07 L 144.26,80.55 L 142.46,79.50 L 141.42,78.94 L 139.24,77.80 L 138.00,77.19 L 135.50,75.97 L 134.09,75.32 L 133.47,75.06 L 131.09,74.20 L 129.81,73.97 L 128.48,73.76 L 127.71,73.70 L 126.09,73.59 L 125.12,73.56 L 123.05,73.52 L 121.80,73.51 L 119.12,73.50 M 295.88,110.01 L 299.55,110.23 L 301.20,110.50 L 302.79,110.78 L 303.46,110.96 L 304.70,111.35 L 305.14,111.57 L 306.83,112.38 L 307.65,112.65 L 307.97,112.65 L 308.59,112.56 L 308.90,112.38 L 309.52,111.93 L 309.92,111.57 L 311.89,110.44 L 313.41,110.06 L 314.18,110.06 L 315.71,110.17 L 316.37,110.41 L 317.61,111.03 L 318.02,111.52 L 318.31,112.30 L 318.47,113.21 L 318.54,113.82 L 318.67,115.16 L 318.72,115.96 L 318.81,117.66 L 318.85,118.63 L 318.95,122.76 L 318.95,125.10 L 318.92,129.93 L 318.87,132.42 L 318.73,137.39 L 318.62,139.74 L 318.38,144.29 L 318.23,146.23 L 318.07,148.09 L 317.99,148.90 L 317.81,150.44 L 317.71,151.06 L 317.51,152.20 L 317.41,152.59 L 317.20,153.26 L 317.08,153.40 L 315.64,154.42 L 314.49,154.71 L 313.87,154.65 L 312.62,154.42 L 312.02,154.11 L 310.84,153.38 L 310.34,152.82 L 309.37,151.90 L 308.79,151.60 L 308.44,151.61 L 307.66,151.75 L 307.10,151.99 L 305.83,152.57 L 304.92,153.04 L 303.02,153.89 L 302.00,154.19 L 299.93,154.70 L 298.85,154.83 L 296.67,155.01 L 295.56,154.98 L 293.33,154.83 L 292.23,154.64 L 290.01,154.19 L 288.94,153.84 L 286.80,153.09 L 285.79,152.60 L 283.80,151.55 L 282.87,150.92 L 281.08,149.59 L 280.29,148.82 L 277.94,146.29 L 276.60,144.52 L 276.05,143.61 L 275.01,141.76 L 274.60,140.80 L 273.87,138.85 L 273.61,137.85 L 273.18,135.82 L 273.07,134.77 L 272.94,132.66 L 272.99,131.57 L 273.16,129.37 L 273.36,128.24 L 273.83,125.96 L 274.18,124.79 L 276.11,120.62 L 277.97,117.90 L 279.05,116.73 L 281.27,114.54 L 282.37,113.79 L 283.47,113.10 L 284.00,112.88 L 285.02,112.50 L 285.49,112.45 L 287.69,111.91 L 288.25,111.64 L 288.44,111.50 L 288.76,111.21 L 288.81,111.06 L 289.53,110.53 L 290.47,110.27 L 291.11,110.18 L 292.50,110.04 L 293.30,110.01 L 294.98,109.98 M 216.88,93.22 L 219.34,93.42 L 220.61,93.64 L 223.19,94.16 L 224.53,94.55 L 228.93,96.51 L 231.69,98.37 L 232.88,99.49 L 235.11,101.81 L 235.91,103.04 L 236.66,104.28 L 236.93,104.89 L 237.42,106.12 L 237.54,106.72 L 238.24,109.36 L 238.81,111.17 L 239.07,111.80 L 239.81,114.18 L 239.98,115.58 L 239.90,116.19 L 239.64,117.37 L 239.35,117.90 L 238.65,118.91 L 238.13,119.38 L 237.09,120.19 L 236.46,120.49 L 236.13,120.53 L 235.47,120.54 L 235.08,120.43 L 234.25,120.16 L 233.73,119.92 L 232.47,119.16 L 231.83,118.51 L 231.59,118.09 L 231.14,117.16 L 230.97,116.55 L 230.66,115.23 L 230.54,114.39 L 229.34,110.32 L 228.06,107.97 L 227.22,107.00 L 225.42,105.18 L 224.37,104.49 L 222.19,103.25 L 221.00,102.87 L 218.57,102.25 L 217.31,102.19 L 214.76,102.24 L 213.49,102.52 L 210.97,103.28 L 209.76,103.94 L 207.39,105.44 L 206.30,106.49 L 202.85,109.85 L 203.17,123.82 L 203.32,129.03 L 203.46,131.90 L 203.56,133.07 L 203.79,135.25 L 203.96,136.14 L 204.34,137.78 L 204.61,138.44 L 205.20,139.68 L 205.60,140.20 L 206.45,141.17 L 207.00,141.60 L 208.18,142.45 L 208.90,142.87 L 210.45,143.72 L 211.39,144.20 L 213.59,145.21 L 214.78,145.59 L 215.36,145.64 L 216.52,145.66 L 217.21,145.54 L 218.68,145.23 L 219.65,144.96 L 223.66,143.16 L 226.01,141.45 L 226.95,140.41 L 228.65,138.25 L 229.18,137.09 L 229.65,135.92 L 229.79,135.33 L 230.00,134.15 L 230.00,133.57 L 230.09,131.69 L 230.31,130.89 L 230.57,130.64 L 231.21,130.24 L 231.75,130.12 L 233.01,129.92 L 233.94,129.83 L 235.72,129.69 L 236.71,129.64 L 237.12,129.65 L 238.53,129.76 L 238.95,129.97 L 239.63,130.51 L 239.78,130.98 L 239.97,132.05 L 239.96,132.83 L 239.65,135.67 L 239.20,137.58 L 238.87,138.53 L 238.12,140.42 L 237.64,141.35 L 236.63,143.19 L 236.03,144.06 L 234.77,145.80 L 234.07,146.61 L 232.60,148.19 L 231.80,148.91 L 230.16,150.30 L 229.28,150.90 L 227.49,152.05 L 226.55,152.52 L 223.75,153.77 L 222.33,154.17 L 219.49,154.82 L 218.08,154.93 L 215.25,155.01 L 213.86,154.83 L 211.10,154.35 L 209.75,153.90 L 207.10,152.88 L 205.83,152.17 L 203.34,150.61 L 202.17,149.64 L 199.88,147.58 L 198.83,146.36 L 196.80,143.80 L 195.90,142.33 L 194.83,140.15 L 194.31,138.44 L 194.11,137.32 L 193.93,136.14 L 193.85,135.46 L 193.69,134.03 L 193.63,133.21 L 193.50,131.48 L 193.44,130.48 L 193.32,128.40 L 193.27,127.20 L 193.13,122.38 L 193.15,119.46 L 193.21,118.13 L 193.37,115.56 L 193.51,114.39 L 193.83,112.13 L 194.05,111.09 L 194.54,109.08 L 194.85,108.16 L 195.52,106.36 L 195.92,105.52 L 197.73,102.33 L 198.94,100.87 L 201.31,98.41 L 203.03,97.00 L 203.95,96.41 L 205.84,95.32 L 206.85,94.89 L 208.90,94.12 L 209.98,93.85 L 212.17,93.40 L 213.32,93.29 L 215.66,93.16 M 520.04,110.10 L 522.07,110.27 L 522.96,110.40 L 524.64,110.70 L 525.34,110.89 L 526.64,111.31 L 527.12,111.56 L 529.66,112.47 L 530.34,112.54 L 530.62,112.49 L 531.14,112.35 L 531.32,112.21 L 533.36,111.04 L 534.72,110.66 L 535.35,110.67 L 536.59,110.82 L 537.13,111.10 L 538.13,111.78 L 538.51,112.31 L 538.86,113.21 L 539.08,114.15 L 539.17,114.76 L 539.36,116.09 L 539.44,116.88 L 539.60,118.54 L 539.67,119.46 L 539.91,123.42 L 539.98,125.64 L 540.10,130.19 L 540.12,132.52 L 540.11,137.16 L 540.07,139.34 L 539.94,143.55 L 539.82,145.32 L 539.70,147.02 L 539.63,147.75 L 539.48,149.14 L 539.39,149.69 L 539.20,150.69 L 539.09,151.03 L 538.87,151.59 L 538.75,151.68 L 536.96,152.36 L 535.43,152.53 L 534.64,152.49 L 533.10,152.32 L 532.48,152.11 L 531.39,151.63 L 531.17,151.27 L 530.08,150.56 L 529.02,150.38 L 528.48,150.48 L 526.73,150.76 L 525.64,150.90 L 525.32,150.92 L 524.30,151.57 L 523.67,152.45 L 523.50,153.00 L 523.21,153.75 L 522.97,154.01 L 522.43,154.48 L 522.01,154.62 L 521.04,154.86 L 520.34,154.92 L 518.76,154.99 L 517.68,154.99 L 513.54,154.65 L 510.95,154.11 L 509.74,153.70 L 507.39,152.79 L 506.30,152.21 L 504.20,150.96 L 503.25,150.23 L 501.42,148.70 L 500.61,147.84 L 499.05,146.06 L 498.39,145.10 L 497.13,143.13 L 496.62,142.08 L 495.67,139.95 L 495.32,138.85 L 494.69,136.61 L 494.51,135.47 L 494.22,133.16 L 494.21,132.00 L 494.28,129.68 L 494.45,128.53 L 494.88,126.23 L 495.24,125.10 L 496.05,122.87 L 496.60,121.79 L 497.81,119.68 L 498.56,118.67 L 500.18,116.71 L 501.14,115.80 L 503.18,114.04 L 504.37,113.25 L 507.20,111.50 L 508.80,110.75 L 509.64,110.52 L 511.40,110.17 L 512.52,110.09 L 513.70,110.03 L 514.38,110.02 L 515.82,110.00 L 516.66,110.00 M 349.35,109.77 L 352.33,110.10 L 353.54,110.46 L 357.68,112.03 L 359.74,113.20 L 360.44,113.87 L 361.62,115.27 L 361.91,116.08 L 362.28,117.77 L 362.19,118.75 L 361.89,120.34 L 361.56,121.20 L 361.32,121.52 L 360.82,122.10 L 360.50,122.29 L 359.81,122.60 L 359.40,122.65 L 358.53,122.69 L 358.02,122.60 L 356.96,122.36 L 356.36,122.14 L 355.11,121.63 L 354.41,121.27 L 352.96,120.49 L 352.16,120.00 L 349.96,118.72 L 348.68,118.08 L 348.10,117.87 L 346.98,117.52 L 346.46,117.47 L 345.41,117.43 L 344.89,117.54 L 343.84,117.84 L 343.29,118.11 L 342.15,118.76 L 341.52,119.21 L 340.20,120.22 L 339.45,120.87 L 337.88,122.26 L 336.96,123.10 L 335.54,124.67 L 334.78,125.80 L 334.48,126.40 L 333.54,128.85 L 333.38,130.14 L 333.29,132.76 L 333.52,134.05 L 334.18,136.62 L 334.75,137.82 L 336.07,140.14 L 336.94,141.15 L 338.81,143.03 L 339.93,143.74 L 342.27,144.99 L 343.59,145.31 L 346.30,145.72 L 347.77,145.54 L 351.62,144.56 L 352.88,144.06 L 353.44,143.79 L 354.49,143.22 L 354.88,142.93 L 357.47,141.55 L 359.13,141.17 L 359.87,141.24 L 361.28,141.55 L 361.83,141.96 L 362.81,142.94 L 363.09,143.69 L 363.17,145.98 L 362.53,147.58 L 361.89,148.38 L 360.39,149.98 L 359.35,150.74 L 357.08,152.23 L 355.68,152.91 L 353.01,154.02 L 351.63,154.35 L 348.83,154.85 L 347.41,154.88 L 344.57,154.81 L 343.17,154.56 L 340.37,153.94 L 339.02,153.43 L 336.35,152.30 L 335.09,151.54 L 332.63,149.92 L 331.51,148.94 L 329.35,146.87 L 328.41,145.68 L 326.63,143.18 L 325.91,141.79 L 325.14,139.89 L 324.73,138.43 L 324.57,137.63 L 324.07,134.27 L 324.02,132.49 L 324.07,128.92 L 324.30,127.27 L 324.57,125.65 L 324.75,124.91 L 325.16,123.49 L 325.42,122.87 L 327.16,119.92 L 328.81,117.83 L 329.78,116.82 L 331.81,114.86 L 332.87,114.02 L 335.00,112.46 L 336.00,111.93 L 339.85,110.56 L 342.92,109.96 L 344.55,109.82 L 347.82,109.66 M 375.14,93.09 L 376.33,93.36 L 376.81,93.67 L 377.68,94.40 L 377.96,94.93 L 378.19,95.73 L 378.33,96.59 L 378.39,97.17 L 378.51,98.41 L 378.56,99.15 L 378.66,100.70 L 378.70,101.57 L 378.85,105.30 L 378.90,107.39 L 378.98,111.68 L 378.99,113.86 L 378.98,118.20 L 378.95,120.22 L 378.87,124.10 L 378.80,125.70 L 378.72,127.23 L 378.67,127.88 L 378.57,129.08 L 378.52,129.55 L 378.40,130.37 L 378.33,130.62 L 378.19,131.00 L 378.11,131.00 L 377.00,131.55 L 376.59,132.36 L 376.56,132.89 L 376.62,133.99 L 376.83,134.55 L 377.37,135.63 L 377.83,136.06 L 379.16,136.78 L 379.69,136.72 L 380.02,136.56 L 380.76,136.15 L 381.23,135.79 L 382.27,134.96 L 382.94,134.36 L 384.39,133.02 L 385.30,132.14 L 387.26,130.23 L 388.46,129.03 L 391.04,126.46 L 392.59,124.91 L 396.09,121.43 L 398.13,119.44 L 399.02,118.59 L 400.70,117.00 L 401.43,116.35 L 402.81,115.12 L 403.40,114.63 L 404.51,113.74 L 404.99,113.40 L 405.89,112.79 L 406.27,112.58 L 407.64,112.00 L 408.18,112.00 L 410.27,112.30 L 411.34,112.74 L 411.51,113.02 L 412.27,113.54 L 412.93,113.55 L 413.22,113.36 L 413.81,113.20 L 413.81,113.50 L 413.60,113.85 L 413.46,114.66 L 413.81,115.00 L 414.17,115.00 L 414.15,115.53 L 413.62,116.37 L 413.13,116.98 L 412.03,118.32 L 411.30,119.13 L 409.74,120.82 L 408.83,121.75 L 406.10,124.53 L 404.36,126.31 L 403.58,127.10 L 402.11,128.61 L 401.55,129.19 L 400.54,130.22 L 400.28,130.50 L 399.29,131.77 L 399.18,132.17 L 399.20,132.39 L 399.31,132.87 L 399.46,133.15 L 399.83,133.77 L 400.12,134.15 L 400.78,134.97 L 401.23,135.49 L 402.22,136.59 L 402.85,137.27 L 404.21,138.72 L 405.03,139.60 L 407.67,142.56 L 409.25,144.50 L 409.90,145.38 L 411.09,147.07 L 411.49,147.74 L 412.14,148.96 L 412.21,149.32 L 412.31,151.01 L 412.23,151.34 L 412.15,151.41 L 411.97,151.48 L 411.86,151.41 L 411.25,151.32 L 411.00,151.57 L 411.00,151.83 L 410.50,152.70 L 409.78,153.26 L 409.31,153.43 L 408.15,153.34 L 407.09,152.82 L 406.38,152.31 L 404.86,151.11 L 403.89,150.24 L 401.81,148.31 L 400.54,147.04 L 397.67,144.31 L 395.87,142.71 L 395.09,142.07 L 393.62,140.91 L 393.08,140.56 L 392.14,140.00 L 391.93,140.00 L 390.77,140.59 L 389.53,141.51 L 388.74,142.18 L 387.06,143.66 L 386.12,144.55 L 384.18,146.41 L 383.19,147.44 L 381.41,149.25 L 380.63,150.00 L 379.13,151.42 L 378.47,151.98 L 377.21,153.01 L 376.66,153.39 L 375.59,154.06 L 375.12,154.26 L 374.21,154.59 L 373.80,154.63 L 372.99,154.63 L 372.62,154.51 L 371.89,154.21 L 371.53,153.95 L 370.82,153.35 L 370.46,152.96 L 370.05,152.25 L 369.82,151.53 L 369.72,151.02 L 369.54,149.87 L 369.47,149.09 L 369.33,147.39 L 369.28,146.30 L 369.18,143.95 L 369.14,142.49 L 369.08,139.37 L 369.06,137.48 L 369.02,133.48 L 369.01,131.11 L 369.01,128.67 L 369.00,127.36 L 369.00,124.66 L 369.00,123.21 L 369.00,118.47 L 369.00,115.60 L 369.01,114.30 L 369.01,111.78 L 369.02,110.65 L 369.03,108.46 L 369.04,107.48 L 369.06,105.60 L 369.08,104.77 L 369.11,103.17 L 369.13,102.46 L 369.21,99.90 L 369.28,98.94 L 369.42,97.23 L 369.51,96.63 L 369.72,95.59 L 369.85,95.24 L 370.14,94.66 L 370.32,94.47 L 370.70,94.16 L 370.93,94.04 L 373.13,93.20 L 374.52,93.01 M 249.93,109.12 L 250.74,109.37 L 251.19,109.67 L 252.14,110.41 L 252.75,110.98 L 254.04,112.09 L 254.75,112.46 L 255.15,112.46 L 256.03,112.34 L 256.67,112.10 L 258.11,111.49 L 259.19,111.00 L 261.83,109.97 L 263.49,109.49 L 264.26,109.35 L 265.76,109.13 L 266.44,109.13 L 267.75,109.17 L 268.32,109.29 L 269.41,109.60 L 269.86,109.84 L 270.70,110.39 L 271.02,110.76 L 271.58,111.55 L 271.75,112.04 L 272.00,113.07 L 272.00,113.67 L 271.56,115.77 L 270.86,116.97 L 270.34,117.44 L 269.19,118.28 L 268.47,118.55 L 266.97,118.96 L 266.12,118.97 L 263.04,119.64 L 260.98,120.67 L 260.02,121.40 L 258.17,123.01 L 257.42,123.96 L 256.03,125.96 L 255.60,127.04 L 254.89,129.40 L 254.53,131.32 L 254.39,132.46 L 254.16,134.85 L 254.09,136.24 L 253.99,139.13 L 253.98,140.77 L 253.92,144.64 L 253.82,147.00 L 253.75,147.99 L 253.60,149.82 L 253.51,150.46 L 253.32,151.52 L 253.21,151.69 L 252.37,152.65 L 251.75,153.03 L 250.40,153.73 L 249.67,153.94 L 248.22,154.25 L 247.59,154.23 L 246.45,154.05 L 246.13,153.73 L 245.86,153.14 L 245.70,152.46 L 245.63,151.96 L 245.49,150.87 L 245.43,150.17 L 245.32,148.68 L 245.28,147.77 L 245.19,145.86 L 245.16,144.74 L 245.09,142.41 L 245.07,141.08 L 245.03,138.33 L 245.02,136.78 L 245.00,133.59 L 245.00,131.84 L 245.00,128.39 L 245.01,126.29 L 245.01,125.34 L 245.03,121.78 L 245.05,120.34 L 245.09,117.67 L 245.13,116.62 L 245.22,114.71 L 245.29,113.99 L 245.43,112.68 L 245.52,112.22 L 245.73,111.39 L 245.87,111.11 L 246.48,110.28 L 246.93,110.04 L 248.63,109.26 L 249.53,109.05 M 438.99,109.54 L 441.46,109.72 L 442.71,109.95 L 444.93,110.36 L 446.26,110.60 L 446.80,110.69 L 447.79,110.86 L 448.11,110.92 L 448.64,111.00 L 448.68,111.00 L 449.29,111.38 L 449.99,111.98 L 450.44,112.40 L 451.41,113.33 L 451.95,113.88 L 453.08,115.02 L 453.65,115.63 L 455.97,118.11 L 456.91,119.19 L 457.78,120.22 L 458.11,120.63 L 458.67,121.38 L 458.79,121.60 L 459.43,123.20 L 459.80,124.53 L 459.95,125.29 L 460.47,128.56 L 460.59,130.33 L 460.73,133.88 L 460.64,135.48 L 460.51,137.03 L 460.41,137.71 L 460.16,139.00 L 460.00,139.51 L 457.98,143.67 L 456.12,146.27 L 455.07,147.36 L 452.90,149.35 L 451.83,149.99 L 450.77,150.56 L 450.27,150.74 L 449.28,151.00 L 448.83,151.00 L 445.90,151.45 L 443.77,152.10 L 442.96,152.52 L 441.95,152.97 L 441.35,153.15 L 440.10,153.46 L 439.42,153.57 L 436.54,153.86 L 435.03,153.81 L 432.03,153.58 L 430.69,153.27 L 429.38,152.94 L 428.80,152.72 L 427.70,152.26 L 427.25,151.99 L 424.45,150.07 L 422.78,148.73 L 422.05,148.03 L 420.66,146.59 L 420.06,145.83 L 418.93,144.28 L 418.46,143.46 L 417.58,141.79 L 417.24,140.91 L 416.60,139.09 L 416.38,138.13 L 415.98,136.17 L 415.87,135.12 L 415.71,132.99 L 415.71,131.85 L 415.82,128.35 L 416.02,126.45 L 416.22,125.63 L 416.67,124.03 L 417.01,123.24 L 417.77,121.66 L 418.29,120.77 L 420.35,117.80 L 421.92,116.02 L 422.79,115.24 L 424.59,113.76 L 425.56,113.14 L 427.55,111.96 L 428.61,111.49 L 430.77,110.63 L 431.90,110.33 L 434.19,109.81 L 435.38,109.67 L 437.77,109.49 M 488.86,109.75 L 490.74,110.11 L 491.46,110.52 L 492.73,111.49 L 493.11,112.20 L 493.78,114.23 L 493.73,115.37 L 493.49,115.79 L 492.87,116.52 L 492.36,116.69 L 491.23,116.89 L 490.49,116.75 L 488.38,116.82 L 487.17,117.29 L 486.82,117.71 L 486.06,118.42 L 485.32,118.99 L 484.87,119.29 L 482.89,120.55 L 481.85,121.08 L 478.87,123.01 L 478.05,123.71 L 477.73,124.04 L 477.18,124.67 L 477.03,124.94 L 476.83,125.58 L 476.69,126.24 L 476.63,126.68 L 476.40,128.68 L 476.30,129.99 L 476.13,132.80 L 476.08,134.40 L 476.00,137.71 L 476.00,139.43 L 475.94,144.32 L 475.85,147.19 L 475.78,148.33 L 475.63,150.41 L 475.54,151.06 L 475.45,151.64 L 475.40,151.81 L 475.30,152.08 L 475.25,152.08 L 474.62,152.15 L 474.11,152.21 L 473.00,152.34 L 472.43,152.40 L 470.33,152.28 L 468.78,151.93 L 468.18,151.67 L 466.94,150.76 L 466.66,150.23 L 466.56,149.83 L 466.36,148.94 L 466.29,148.31 L 466.17,146.91 L 466.13,145.97 L 466.06,143.92 L 466.04,142.61 L 466.01,139.76 L 466.01,138.00 L 466.00,136.17 L 466.00,135.16 L 466.00,133.07 L 466.00,131.93 L 466.05,124.52 L 466.12,120.06 L 466.18,118.21 L 466.24,116.44 L 466.27,115.68 L 466.34,114.25 L 466.37,113.68 L 466.45,112.64 L 466.49,112.28 L 466.57,111.69 L 466.61,111.58 L 467.12,110.92 L 467.66,110.57 L 468.00,110.44 L 469.56,110.03 L 470.45,110.01 L 472.25,110.10 L 473.05,110.33 L 474.52,110.92 L 474.92,111.41 L 475.72,112.07 L 476.36,112.27 L 476.82,112.24 L 477.84,112.09 L 478.56,111.88 L 480.18,111.38 L 481.30,110.99 L 485.43,109.90 L 487.85,109.65 M 294.50,119.15 L 293.63,119.31 L 291.88,119.70 L 291.02,120.02 L 289.31,120.73 L 288.48,121.21 L 286.85,122.25 L 286.08,122.89 L 284.20,124.59 L 283.41,125.60 L 283.18,126.19 L 282.82,127.45 L 282.75,128.32 L 282.70,129.25 L 282.68,129.80 L 282.67,130.97 L 282.67,131.66 L 283.11,136.15 L 283.88,138.66 L 284.51,139.70 L 285.95,141.67 L 286.95,142.47 L 289.12,143.98 L 290.50,144.59 L 292.28,145.29 L 293.14,145.54 L 294.79,145.95 L 295.28,145.96 L 298.00,145.52 L 299.99,144.79 L 301.00,144.24 L 303.00,143.04 L 303.92,142.31 L 305.69,140.78 L 306.40,139.93 L 307.88,137.99 L 308.50,136.86 L 308.67,136.26 L 308.91,135.00 L 308.92,134.20 L 308.87,132.45 L 308.77,131.27 L 308.43,128.56 L 308.08,127.08 L 307.83,126.45 L 307.27,125.24 L 306.88,124.67 L 306.04,123.56 L 305.49,122.99 L 303.49,121.29 L 302.02,120.40 L 301.23,120.07 L 299.63,119.50 L 298.80,119.33 L 297.11,119.08 L 296.24,119.08 M 435.15,117.63 L 432.94,118.22 L 431.93,118.83 L 429.96,120.27 L 429.10,121.29 L 427.25,123.86 L 426.79,124.66 L 426.64,124.99 L 426.38,125.61 L 426.35,125.82 L 425.73,127.16 L 424.99,127.99 L 424.56,128.23 L 423.60,129.50 L 423.46,130.79 L 423.63,131.63 L 424.13,133.44 L 424.61,134.51 L 425.73,136.75 L 426.52,138.01 L 428.43,140.78 L 429.64,142.18 L 430.26,142.71 L 431.54,143.68 L 432.26,144.04 L 433.78,144.71 L 434.69,144.98 L 436.40,145.44 L 437.29,145.61 L 439.02,145.89 L 439.60,145.91 L 440.78,145.72 L 441.75,145.37 L 442.29,145.11 L 444.56,143.87 L 445.69,143.06 L 447.90,141.37 L 448.73,140.54 L 449.51,139.71 L 449.78,139.34 L 450.24,138.61 L 450.32,138.31 L 451.13,134.80 L 451.44,132.69 L 451.47,131.74 L 451.46,129.90 L 451.33,129.06 L 450.98,127.44 L 450.68,126.70 L 449.97,125.26 L 449.48,124.58 L 448.40,123.27 L 447.71,122.65 L 446.24,121.43 L 445.35,120.83 L 443.47,119.65 L 442.37,119.06 L 438.67,117.70 L 436.28,117.44 M 516.52,119.01 L 515.64,119.16 L 513.84,119.54 L 512.86,119.84 L 510.85,120.53 L 509.75,120.98 L 507.79,121.82 L 506.74,122.33 L 506.32,122.59 L 505.55,123.13 L 505.26,123.45 L 504.74,124.13 L 504.55,124.56 L 504.22,125.49 L 504.11,126.09 L 503.94,127.37 L 503.89,128.17 L 503.81,129.91 L 503.80,130.99 L 503.79,133.29 L 503.78,134.69 L 504.44,137.31 L 505.46,139.21 L 506.17,140.14 L 507.72,141.94 L 508.60,142.70 L 510.42,144.08 L 511.34,144.50 L 512.84,145.07 L 513.64,145.23 L 515.29,145.47 L 516.14,145.48 L 517.86,145.42 L 518.73,145.29 L 520.45,144.95 L 521.29,144.69 L 522.94,144.10 L 523.71,143.72 L 525.21,142.90 L 525.88,142.41 L 527.16,141.39 L 527.70,140.80 L 528.68,139.59 L 529.04,138.93 L 529.99,135.77 L 530.22,133.21 L 530.15,131.88 L 529.89,129.25 L 529.58,128.09 L 529.25,126.98 L 529.03,126.49 L 528.58,125.58 L 528.32,125.22 L 526.42,122.94 L 525.16,121.68 L 524.51,121.18 L 523.20,120.27 L 522.53,119.94 L 521.15,119.36 L 520.42,119.19 L 518.94,118.94 L 518.14,118.94 Z" fill="#124e64" data-index="0" style="opacity: 1;"></path>
<path d="M 517.62,154.99 L 516.48,155.05 L 514.62,154.80 L 514.15,154.70 M 402.97,127.77 L 401.67,129.32 L 401.24,129.91 L 400.52,130.95 L 400.43,131.21 L 400.52,132.49 L 401.05,133.58 L 401.60,134.31 L 402.87,135.90 L 403.83,136.93 L 404.85,138.00 L 405.44,138.61 L 406.70,139.87 L 407.41,140.58 L 409.97,143.13 L 411.38,144.59 L 411.94,145.22 L 412.96,146.40 L 413.35,146.92 L 414.04,147.90 L 414.27,148.34 L 414.65,149.18 L 414.74,149.56 L 414.85,150.32 L 414.81,150.70 L 414.43,152.19 L 413.96,153.07 L 413.17,154.20 L 412.56,154.71 L 412.21,154.84 L 411.48,155.01 L 411.05,154.97 L 410.17,154.81 L 409.67,154.59 L 408.61,154.06 L 408.00,153.67 L 406.75,152.77 L 406.03,152.19 L 404.55,150.92 L 403.71,150.14 L 401.97,148.48 L 401.00,147.50 L 399.35,145.91 L 400.54,147.04 L 401.81,148.31 L 403.89,150.24 L 404.86,151.11 L 406.38,152.31 L 407.09,152.82 L 408.15,153.34 L 409.31,153.43 L 409.78,153.26 L 410.50,152.70 L 411.00,151.83 L 411.00,151.57 L 411.25,151.32 L 411.86,151.41 L 411.97,151.48 L 412.15,151.41 L 412.23,151.34 L 412.31,151.01 L 412.21,149.32 L 412.14,148.96 L 411.49,147.74 L 411.09,147.07 L 409.90,145.38 L 409.25,144.50 L 407.67,142.56 L 405.03,139.60 L 404.21,138.72 L 402.85,137.27 L 402.22,136.59 L 401.23,135.49 L 400.78,134.97 L 400.12,134.15 L 399.83,133.77 L 399.46,133.15 L 399.31,132.87 L 399.20,132.39 L 399.18,132.17 L 399.29,131.77 L 400.28,130.50 L 400.54,130.22 L 401.55,129.19 L 402.11,128.61 L 403.29,127.40 M 452.60,149.75 L 451.33,150.74 L 448.75,152.57 L 447.50,153.13 L 445.41,153.98 L 444.34,154.27 L 442.15,154.75 L 441.04,154.86 L 438.81,155.00 L 437.69,154.93 L 435.44,154.73 L 434.33,154.50 L 432.12,153.96 L 431.04,153.57 L 429.64,153.00 L 430.69,153.27 L 432.03,153.58 L 435.03,153.81 L 436.54,153.86 L 439.42,153.57 L 440.10,153.46 L 441.35,153.15 L 441.95,152.97 L 442.96,152.52 L 443.77,152.10 L 445.90,151.45 L 448.83,151.00 L 449.28,151.00 L 450.27,150.74 L 450.77,150.56 L 451.83,149.99 L 452.90,149.35 L 453.95,148.39 M 539.85,145.13 L 539.77,147.21 L 539.72,148.09 L 539.62,149.73 L 539.56,150.40 L 539.42,151.63 L 539.35,152.10 L 539.19,152.94 L 539.10,153.22 L 538.91,153.69 L 538.80,153.80 L 537.30,154.71 L 536.12,154.98 L 535.49,154.94 L 534.22,154.75 L 533.60,154.49 L 532.39,153.86 L 531.86,153.38 L 530.78,152.54 L 530.12,152.25 L 529.72,152.25 L 528.87,152.35 L 528.28,152.54 L 526.95,153.00 L 526.02,153.38 L 524.12,154.07 L 523.16,154.31 L 522.45,154.46 L 522.97,154.01 L 523.21,153.75 L 523.50,153.00 L 523.67,152.45 L 524.30,151.57 L 525.32,150.92 L 525.64,150.90 L 526.73,150.76 L 528.48,150.48 L 529.02,150.38 L 530.08,150.56 L 531.17,151.27 L 531.39,151.63 L 532.48,152.11 L 533.10,152.32 L 534.64,152.49 L 535.43,152.53 L 536.96,152.36 L 538.75,151.68 L 538.87,151.59 L 539.09,151.03 L 539.20,150.69 L 539.39,149.69 L 539.48,149.14 L 539.63,147.75 L 539.70,147.02 L 539.82,145.32 L 539.86,144.82 M 297.72,154.97 L 297.23,154.96 L 298.23,154.88 M 466.66,150.23 L 466.94,150.76 L 468.18,151.67 L 468.78,151.93 L 470.33,152.28 L 472.43,152.40 L 473.00,152.34 L 474.11,152.21 L 474.62,152.15 L 475.21,152.09 L 475.21,152.11 L 474.74,153.11 L 474.43,153.43 L 473.38,154.26 L 472.75,154.51 L 471.43,154.91 L 470.75,154.94 L 469.39,154.90 L 468.78,154.71 L 467.62,154.22 L 467.20,153.80 L 466.97,153.15 L 466.83,152.33 L 466.76,151.75 L 466.63,150.48 L 466.59,149.97 M 302.33,154.11 L 302.12,154.16 L 302.45,154.06 M 288.94,153.84 L 289.83,154.13 L 289.50,154.06 L 288.29,153.65 L 286.92,153.13 M 276.05,143.61 L 276.60,144.52 L 277.94,146.29 L 280.29,148.82 L 281.08,149.59 L 282.87,150.92 L 283.80,151.55 L 285.79,152.60 L 286.77,153.07 L 285.92,152.75 L 284.84,152.17 L 282.74,150.94 L 281.80,150.22 L 279.97,148.72 L 279.17,147.87 L 277.63,146.12 L 276.98,145.17 L 275.74,143.23 L 275.24,142.19 L 275.19,142.07 M 227.23,152.18 L 226.56,152.52 L 227.23,152.18 M 235.27,145.30 L 234.42,146.36 L 232.90,147.99 L 231.62,149.13 L 230.91,149.69 L 230.64,149.89 L 231.80,148.91 L 232.60,148.19 L 234.07,146.61 L 234.77,145.80 L 236.03,144.06 L 236.27,143.71 M 475.98,142.79 L 475.96,144.77 L 475.93,145.61 L 475.88,147.21 L 475.84,147.89 L 475.75,149.16 L 475.69,149.68 L 475.68,149.73 L 475.78,148.33 L 475.85,147.19 L 475.94,144.32 L 476.00,139.48 M 392.28,140.08 L 392.09,140.00 L 392.14,140.00 M 441.75,145.37 L 440.78,145.72 L 439.60,145.91 L 439.02,145.89 L 438.08,145.74 L 439.65,145.85 L 440.47,145.70 L 441.75,145.37 M 346.30,145.72 L 346.02,145.67 L 346.88,145.65 M 336.32,140.42 L 337.03,141.15 L 338.56,142.58 L 339.50,143.24 L 341.70,144.64 L 342.51,145.05 L 342.27,144.99 L 339.93,143.74 L 338.81,143.03 L 336.94,141.15 L 336.07,140.14 L 335.90,139.84 M 497.97,144.44 L 497.77,144.19 L 497.51,143.72 M 430.90,143.18 L 432.73,144.25 L 432.26,144.04 L 431.54,143.68 L 430.58,142.95 M 415.98,136.17 L 416.38,138.13 L 416.60,139.09 L 417.24,140.91 L 417.58,141.79 L 418.46,143.46 L 418.47,143.49 L 417.54,142.05 L 417.05,140.82 L 416.22,138.29 L 416.01,136.83 L 415.71,133.73 L 415.71,132.99 L 415.87,135.12 M 237.31,141.98 L 237.01,142.50 L 237.38,141.82 M 496.60,121.79 L 496.05,122.87 L 495.24,125.10 L 494.88,126.23 L 494.45,128.53 L 494.28,129.68 L 494.21,132.00 L 494.22,133.16 L 494.51,135.47 L 494.69,136.61 L 495.32,138.85 L 495.67,139.95 L 496.11,140.93 L 495.24,139.09 L 494.75,137.21 L 494.33,135.30 L 494.20,134.31 L 494.02,132.31 L 494.02,131.28 L 494.78,126.20 L 495.97,122.87 L 496.87,121.30 L 496.96,121.16 M 274.46,140.41 L 274.32,140.09 L 274.24,139.82 M 450.32,138.31 L 450.24,138.61 L 449.78,139.34 L 449.51,139.71 L 449.36,139.86 L 449.59,139.49 L 450.27,138.17 L 450.54,137.28 L 450.63,136.97 M 230.00,134.15 L 229.79,135.33 L 229.65,135.92 L 229.18,137.09 L 228.65,138.25 L 227.79,139.35 L 228.66,138.24 L 229.18,137.08 L 229.65,135.90 L 229.79,135.31 L 230.00,134.12 M 505.56,139.34 L 505.46,139.21 L 505.31,138.93 M 438.67,117.70 L 442.37,119.06 L 443.47,119.65 L 445.35,120.83 L 446.24,121.43 L 446.84,121.92 L 446.18,121.47 L 444.13,120.25 L 442.99,119.83 L 440.65,119.15 L 439.42,119.05 L 436.92,119.00 L 435.66,119.24 L 433.14,119.91 L 431.91,120.55 L 428.64,122.97 L 427.01,124.98 L 426.46,126.12 L 425.55,128.47 L 425.35,129.71 L 425.13,132.23 L 425.27,133.48 L 425.72,135.98 L 426.18,137.16 L 426.74,138.33 L 426.52,138.01 L 425.73,136.75 L 424.61,134.51 L 424.13,133.44 L 423.63,131.63 L 423.46,130.79 L 423.60,129.50 L 424.56,128.23 L 424.99,127.99 L 425.73,127.16 L 426.35,125.82 L 426.38,125.61 L 426.64,124.99 L 426.79,124.66 L 427.25,123.86 L 429.10,121.29 L 429.96,120.27 L 431.93,118.83 L 432.94,118.22 L 435.15,117.63 L 436.28,117.44 M 504.18,135.98 L 504.93,138.21 L 504.44,137.31 L 503.78,134.69 L 503.79,133.29 L 503.79,132.18 M 379.00,114.56 L 379.00,136.70 L 377.83,136.06 L 377.37,135.63 L 376.83,134.55 L 376.62,133.99 L 376.56,132.89 L 376.59,132.36 L 377.00,131.55 L 378.11,131.00 L 378.19,131.00 L 378.33,130.62 L 378.40,130.37 L 378.52,129.55 L 378.57,129.08 L 378.67,127.88 L 378.72,127.23 L 378.80,125.70 L 378.87,124.10 L 378.95,120.22 L 378.98,118.20 L 378.99,113.86 L 378.99,113.50 M 466.45,112.64 L 466.37,113.68 L 466.34,114.25 L 466.27,115.68 L 466.24,116.44 L 466.18,118.21 L 466.12,120.06 L 466.05,124.52 L 466.00,131.93 L 466.00,133.07 L 466.00,135.16 L 466.00,135.17 L 465.98,133.39 L 465.93,128.38 L 465.93,125.99 L 465.96,121.33 L 466.01,119.33 L 466.07,117.39 L 466.11,116.54 L 466.19,114.91 L 466.23,114.25 L 466.34,113.01 L 466.40,112.56 L 466.53,111.78 L 466.57,111.69 L 466.49,112.28 M 273.02,133.95 L 272.95,133.34 L 272.96,132.88 M 273.83,125.96 L 273.36,128.24 L 273.16,129.37 L 272.99,131.57 L 272.96,132.30 L 272.96,132.18 L 273.05,129.86 L 273.24,128.69 L 273.69,126.38 L 273.85,125.90 M 510.87,120.65 L 507.82,122.86 L 506.23,124.52 L 505.65,125.45 L 504.63,127.39 L 504.32,128.49 L 503.84,130.77 L 503.80,131.70 L 503.80,130.99 L 503.81,129.91 L 503.89,128.17 L 503.94,127.37 L 504.11,126.09 L 504.22,125.49 L 504.55,124.56 L 504.74,124.13 L 505.26,123.45 L 505.55,123.13 L 506.32,122.59 L 506.74,122.33 L 507.79,121.82 L 509.75,120.98 L 510.85,120.53 L 511.39,120.35 M 237.56,127.48 L 238.59,128.25 L 238.95,128.83 L 239.56,130.10 L 239.64,130.52 L 239.63,130.51 L 238.95,129.97 L 238.53,129.76 L 237.12,129.65 L 236.71,129.64 L 235.72,129.69 L 233.94,129.83 L 233.01,129.92 L 231.75,130.12 L 231.21,130.24 L 230.57,130.64 L 230.41,130.80 L 231.02,129.35 L 231.51,128.78 L 232.57,127.76 L 233.25,127.46 L 234.69,127.00 L 235.54,127.00 M 411.08,109.16 L 413.10,110.13 L 414.12,111.38 L 414.44,112.29 L 414.80,114.00 L 414.61,115.06 L 414.19,115.72 L 413.72,116.41 L 413.38,116.82 L 412.64,117.68 L 412.16,118.20 L 411.79,118.59 L 412.03,118.32 L 413.13,116.98 L 413.62,116.37 L 414.15,115.53 L 414.17,115.00 L 413.81,115.00 L 413.46,114.66 L 413.60,113.85 L 413.81,113.50 L 413.81,113.20 L 413.22,113.36 L 412.93,113.55 L 412.27,113.54 L 411.51,113.02 L 411.34,112.74 L 410.27,112.30 L 408.18,112.00 L 407.64,112.00 L 406.27,112.58 L 405.89,112.79 L 404.99,113.40 L 404.51,113.74 L 403.40,114.63 L 402.81,115.12 L 401.43,116.35 L 400.70,117.00 L 399.02,118.59 L 398.13,119.44 L 396.09,121.43 L 392.59,124.91 L 391.04,126.46 L 388.46,129.03 L 387.26,130.23 L 387.25,130.24 L 393.85,123.65 L 397.96,119.57 L 400.33,117.26 L 401.34,116.29 L 403.26,114.47 L 404.07,113.72 L 405.61,112.35 L 406.25,111.81 L 407.45,110.82 L 407.95,110.46 L 408.88,109.83 L 409.27,109.62 L 409.98,109.29 L 410.28,109.21 L 410.84,109.13 M 335.53,124.80 L 334.67,126.17 L 334.34,126.90 L 333.74,128.40 L 333.55,129.18 L 333.42,129.84 L 333.54,128.85 L 334.48,126.40 L 334.78,125.80 L 335.54,124.67 L 335.85,124.33 M 447.71,122.65 L 448.40,123.27 L 449.48,124.58 L 449.97,125.26 L 450.68,126.70 L 450.98,127.44 L 450.99,127.46 L 450.68,126.78 L 449.57,124.72 L 448.81,123.83 L 447.41,122.40 M 537.18,109.25 L 538.35,109.75 L 538.80,110.20 L 539.10,110.78 L 539.27,111.43 L 539.35,111.90 L 539.49,112.93 L 539.56,113.60 L 539.67,115.04 L 539.72,115.91 L 539.81,117.77 L 539.85,118.87 L 539.91,121.18 L 539.93,122.52 L 539.97,125.30 L 539.97,125.39 L 539.91,123.42 L 539.67,119.46 L 539.60,118.54 L 539.44,116.88 L 539.36,116.09 L 539.17,114.76 L 539.08,114.15 L 538.86,113.21 L 538.51,112.31 L 538.13,111.78 L 537.13,111.10 L 536.59,110.82 L 535.35,110.67 L 534.72,110.66 L 533.36,111.04 L 531.32,112.21 L 531.14,112.35 L 530.62,112.49 L 530.34,112.54 L 529.66,112.47 L 529.46,112.40 L 529.59,112.39 L 530.19,112.22 L 530.49,111.99 L 531.13,111.41 L 531.53,110.96 L 533.26,109.66 L 534.57,109.15 L 535.24,109.08 L 536.57,109.06 M 274.41,124.29 L 274.90,122.96 L 275.47,121.86 L 275.86,121.16 M 362.33,115.40 L 362.98,116.16 L 363.56,116.90 L 363.73,117.24 L 364.00,117.91 L 364.00,118.20 L 363.68,120.35 L 363.18,121.67 L 362.82,122.20 L 362.06,123.19 L 361.61,123.50 L 360.69,123.98 L 360.21,123.97 L 359.23,123.76 L 358.35,123.45 L 357.83,123.22 L 355.60,122.15 L 354.50,121.47 L 351.59,120.02 L 349.69,119.38 L 348.76,119.22 L 346.92,118.98 L 346.04,119.01 L 344.29,119.14 L 343.46,119.34 L 341.84,119.80 L 341.09,120.14 L 339.62,120.89 L 338.94,121.35 L 338.58,121.64 L 339.45,120.87 L 340.20,120.22 L 341.52,119.21 L 342.15,118.76 L 343.29,118.11 L 343.84,117.84 L 344.89,117.54 L 345.41,117.43 L 346.46,117.47 L 346.98,117.52 L 348.10,117.87 L 348.68,118.08 L 349.96,118.72 L 352.16,120.00 L 352.96,120.49 L 354.41,121.27 L 355.11,121.63 L 356.36,122.14 L 356.96,122.36 L 358.02,122.60 L 358.53,122.69 L 359.40,122.65 L 359.81,122.60 L 360.50,122.29 L 360.82,122.10 L 361.32,121.52 L 361.56,121.20 L 361.89,120.34 L 362.19,118.75 L 362.28,117.77 L 361.91,116.08 L 361.62,115.27 L 360.55,114.00 M 478.82,123.07 L 478.03,123.73 L 477.90,123.86 L 478.05,123.71 L 478.87,123.01 L 479.08,122.88 M 492.61,116.71 L 492.10,117.12 L 489.89,118.45 L 488.38,119.00 L 487.85,119.00 L 486.61,119.16 L 485.65,119.42 L 485.12,119.62 L 482.92,120.53 L 481.82,121.14 L 481.11,121.56 L 481.85,121.08 L 482.89,120.55 L 484.87,119.29 L 485.32,118.99 L 486.06,118.42 L 486.82,117.71 L 487.17,117.29 L 488.38,116.82 L 490.49,116.75 L 491.23,116.89 L 492.36,116.69 L 492.76,116.56 M 276.42,120.17 L 276.69,119.68 L 277.46,118.64 L 277.50,118.59 M 498.66,118.56 L 498.87,118.23 L 499.37,117.69 M 293.30,110.01 L 292.50,110.04 L 291.11,110.18 L 290.47,110.27 L 289.53,110.53 L 288.81,111.06 L 288.76,111.21 L 288.44,111.50 L 288.25,111.64 L 287.69,111.91 L 285.49,112.45 L 285.02,112.50 L 284.00,112.88 L 283.47,113.10 L 282.37,113.79 L 281.27,114.54 L 279.05,116.73 L 278.55,117.27 L 279.08,116.60 L 280.05,115.64 L 282.10,113.77 L 283.28,112.91 L 285.65,111.36 L 287.07,110.69 L 287.86,110.48 L 289.54,110.16 L 290.64,110.09 L 291.79,110.03 L 292.47,110.02 L 293.88,110.00 L 294.05,110.00 M 493.56,115.73 L 493.28,116.05 L 493.24,116.09 L 493.49,115.79 L 493.66,115.49 M 493.30,112.75 L 493.81,114.11 L 493.91,114.82 L 493.82,115.13 L 493.73,115.33 L 493.78,114.23 L 493.27,112.69 M 502.07,115.00 L 502.81,114.29 L 503.18,114.04 M 336.00,111.93 L 337.63,111.24 L 338.91,110.84 L 339.44,110.71 M 525.23,110.86 L 526.49,111.24 L 526.93,111.46 L 527.21,111.59 L 527.12,111.56 L 526.64,111.31 L 525.34,110.89 L 524.65,110.70 M 298.07,110.10 L 300.09,110.27 L 300.97,110.41 L 302.65,110.70 L 303.35,110.90 L 304.65,111.32 L 304.70,111.35 L 303.46,110.96 L 302.79,110.78 L 301.20,110.50 L 299.55,110.23 L 296.66,110.06 M 524.55,110.68 L 524.64,110.70 L 523.69,110.53 M 348.89,109.69 L 351.71,109.88 L 352.76,110.17 L 353.51,110.45 L 352.33,110.10 L 349.35,109.77 L 347.82,109.66 L 346.08,109.75 L 347.42,109.65 M 490.96,110.24 L 490.98,110.25 L 490.96,110.23 M 165.05,58.90 L 168.00,61.85 L 167.94,110.08 L 167.94,107.67 L 167.94,102.02 L 167.95,99.29 L 167.94,94.38 L 167.94,92.02 L 167.93,87.82 L 167.93,85.79 L 167.91,82.23 L 167.90,80.53 L 167.87,77.55 L 167.85,76.13 L 167.81,73.70 L 167.79,72.54 L 167.73,70.58 L 167.70,69.65 L 167.63,68.12 L 167.59,67.40 L 167.49,66.24 L 167.45,65.70 L 167.33,64.85 L 167.28,64.47 L 167.14,63.88 L 167.00,63.36 L 166.65,62.85 L 166.00,62.50 L 165.56,62.36 L 164.88,61.88 L 164.57,61.60 L 164.14,60.86 L 163.96,60.46 L 163.80,59.48 L 163.88,57.77 L 163.88,57.73 M 489.10,109.77 L 489.61,109.89 L 488.86,109.75 L 487.85,109.65 L 485.44,109.90 L 485.64,109.85 L 488.10,109.62 M 163.19,57.03 L 162.13,56.79 L 161.77,56.73 L 160.85,56.62 L 160.35,56.57 L 159.13,56.48 L 158.48,56.44 L 156.91,56.37 L 156.08,56.33 L 154.13,56.27 L 153.10,56.25 L 150.73,56.20 L 149.50,56.18 L 146.67,56.15 L 145.20,56.14 L 141.89,56.12 L 140.17,56.12 L 136.32,56.11 L 134.33,56.11 L 129.93,56.12 L 127.92,56.12 L 162.10,55.95 M 389.55,141.51 L 388.75,142.18 L 387.06,143.66 L 386.12,144.55 L 384.18,146.41 L 386.12,144.55 L 387.06,143.66 L 388.74,142.18 L 389.53,141.51 L 390.77,140.59 L 391.93,140.00 L 391.98,140.00 L 390.80,140.59 M 230.00,133.52 L 230.00,133.57 L 230.00,133.54 M 525.11,121.78 L 524.41,121.27 L 523.01,120.33 L 522.29,119.98 L 520.83,119.35 L 520.08,119.16 L 519.55,119.05 L 520.42,119.19 L 521.15,119.36 L 522.53,119.94 L 523.20,120.27 L 524.51,121.18 L 525.16,121.68 L 526.42,122.94 L 528.32,125.22 L 526.43,123.02 Z" fill="#124e64" data-index="1"></path>

</g>
</svg>